<svg width="1920" height="643" viewBox="0 0 1920 643" fill="none" xmlns="http://www.w3.org/2000/svg">
<path d="M1936.16 642.401C1938.15 502.419 1865.41 362.487 1734.51 254.493C1697.26 223.769 1653.58 194.718 1598.51 181.242C1439.36 142.308 1269.42 227.418 1135.61 275.743C974.136 334.054 814.485 395.165 646.355 444.372C551.965 471.999 441.104 495.446 349.797 463.381C257.338 430.907 222.156 355.293 183.931 289.445C139.394 212.716 78.06 138.802 -11.9727 83.5495C-102.006 28.2965 -223.715 -6.58448 -344.24 2.40905C-438.622 9.4537 -524.623 42.038 -603.158 78.3488C-809.505 173.761 -984.807 300.073 -1113 445.709" stroke="#2EA7E0" stroke-width="0.552088" stroke-miterlimit="10"/>
<path d="M1941.32 636.349C1943.08 512.632 1879.12 391.548 1765.71 287.7C1755.18 278.055 1744.34 268.57 1733.03 259.345C1695.84 229.04 1652.54 200.359 1598.24 186.778C1441.2 147.453 1273.86 228.113 1140.24 274.704C1021.77 316.011 904.145 359.626 782.338 399.106C740.08 412.858 697.457 426.103 654.291 438.597C560.656 465.693 451.108 488.826 360.483 458.257C268.722 427.301 232.396 354.613 193.116 291.344C147.337 217.623 85.2976 146.58 -4.56477 93.4585C-35.8523 74.9636 -70.8642 58.8426 -108.262 46.0507C-178.237 22.1011 -256.569 9.78949 -334.406 15.3877C-427.904 22.1121 -513.279 53.3769 -591.311 88.0314C-749.291 158.141 -888.892 245.167 -1003.98 345.415C-1038.33 375.327 -1070.48 406.41 -1100.27 438.58" stroke="#2EA7E0" stroke-width="0.552088" stroke-miterlimit="10"/>
<path d="M1946.48 630.304C1948.18 510.711 1880.81 396.334 1764.18 292.117C1753.59 282.659 1742.81 273.296 1731.54 264.209C1694.41 234.33 1651.48 206.013 1597.96 192.321C1443.02 152.598 1278.3 228.814 1144.85 273.677C1027.63 313.085 911.033 355.546 789.291 394.192C747.342 407.619 705.036 420.582 662.218 432.833C569.337 459.405 461.097 482.217 371.161 453.144C280.098 423.702 242.628 353.94 202.301 293.254C155.289 222.542 92.5271 154.371 2.8432 103.385C-28.3875 85.6356 -63.2289 70.1606 -100.375 57.8876C-169.855 34.8987 -247.465 23.0509 -324.564 28.3841C-417.177 34.7938 -501.92 64.7336 -579.457 97.7264C-736.495 164.457 -875.179 246.702 -990.601 342.34C-1025.04 370.878 -1057.41 400.597 -1087.53 431.464" stroke="#2EA7E0" stroke-width="0.552088" stroke-miterlimit="10"/>
<path d="M1951.64 624.253C1953.28 508.784 1882.55 401.116 1762.65 296.528C1752.02 287.248 1741.31 278.011 1730.08 269.067C1693 239.608 1650.44 211.667 1597.7 197.865C1444.87 157.75 1282.78 229.521 1149.49 272.645C1033.53 310.159 917.817 351.268 796.27 389.279C754.58 402.32 712.639 415.062 670.162 427.07C578.036 453.112 471.102 475.609 381.864 448.032C291.499 420.102 252.884 353.272 211.503 295.165C163.249 227.462 99.7816 162.161 10.2762 113.307C-20.9058 96.3023 -55.5689 81.4732 -92.4632 69.7138C-161.456 47.6854 -238.328 36.3013 -314.705 41.375C-406.434 47.4701 -490.543 76.0848 -567.586 107.416C-723.691 170.774 -861.45 248.232 -977.204 339.265C-1011.75 366.428 -1044.31 394.783 -1074.77 424.353" stroke="#2EA7E0" stroke-width="0.552088" stroke-miterlimit="10"/>
<path d="M1956.79 618.207C1958.37 506.862 1884.31 405.891 1761.11 300.944C1750.43 291.846 1739.77 282.731 1728.58 273.931C1691.55 244.896 1649.37 217.319 1597.41 203.407C1446.69 162.9 1287.26 230.238 1154.1 271.617C1039.42 307.249 924.657 347.126 803.215 384.365C761.818 397.063 720.217 409.54 678.081 421.305C586.71 446.823 481.09 469.006 392.534 442.919C302.866 416.507 263.108 352.603 220.672 297.074C171.176 232.38 107.003 169.945 17.6676 123.227C-13.4576 106.962 -47.9419 92.7848 -84.5927 81.5388C-153.091 60.4766 -229.233 49.5563 -304.887 54.3595C-395.74 60.1343 -479.217 87.4296 -555.756 117.099C-710.919 177.078 -847.762 249.755 -963.857 336.179C-998.503 361.967 -1031.28 388.958 -1062.06 417.225" stroke="#2EA7E0" stroke-width="0.552088" stroke-miterlimit="10"/>
<path d="M1961.94 612.158C1963.47 504.937 1886.12 410.656 1759.58 305.356C1748.85 296.435 1738.25 287.452 1727.11 278.79C1690.13 250.175 1648.32 222.968 1597.14 208.951C1448.53 168.052 1291.77 230.963 1158.71 270.591C1045.34 304.357 931.522 342.992 810.177 379.458C769.072 391.814 727.804 404.026 686.017 415.548C595.4 440.535 491.087 462.404 403.22 437.814C314.251 412.914 273.356 351.942 229.857 298.991C179.128 237.301 114.241 177.741 25.0761 133.16C-5.99231 117.641 -40.3063 104.109 -76.7056 93.3766C-144.709 73.2751 -220.129 62.8185 -295.045 67.3622C-385.013 72.8223 -467.857 98.7981 -543.901 126.806C-698.123 183.411 -834.049 251.302 -950.477 333.121C-985.221 357.534 -1018.2 383.162 -1049.32 410.126" stroke="#2EA7E0" stroke-width="0.552088" stroke-miterlimit="10"/>
<path d="M1967.1 606.106C1968.57 503.009 1887.97 415.404 1758.05 309.762C1747.29 301.016 1736.74 292.161 1725.63 283.642C1688.71 255.453 1647.27 228.61 1596.87 214.482C1450.36 173.191 1296.32 231.68 1163.34 269.547C1051.28 301.458 938.387 338.84 817.139 374.527C776.326 386.54 735.391 398.488 693.953 409.761C604.09 434.224 501.092 455.772 413.907 432.679C325.635 409.292 283.596 351.251 239.042 300.878C187.072 242.197 121.479 185.509 32.4845 143.058C1.4728 128.285 -32.6626 115.399 -68.8185 105.185C-136.335 86.0443 -211.016 76.0515 -285.21 80.3302C-374.294 85.4756 -456.513 110.126 -532.054 136.472C-685.335 189.699 -820.344 252.808 -937.104 330.018C-971.954 353.056 -1005.14 377.321 -1036.58 402.982" stroke="#2EA7E0" stroke-width="0.552088" stroke-miterlimit="10"/>
<path d="M1972.25 600.061C1973.66 501.088 1889.86 420.152 1756.51 314.178C1745.72 305.605 1735.2 296.882 1724.14 288.506C1687.27 260.736 1646.21 234.264 1596.58 220.031C1452.19 178.343 1300.86 232.431 1167.95 268.526C1057.24 298.593 945.258 334.716 824.092 369.625C783.571 381.301 742.969 392.973 701.879 404.009C612.772 427.942 511.079 449.175 424.584 427.577C337.01 405.709 293.827 350.589 248.226 302.8C195.023 247.127 128.716 193.31 39.8999 152.996C8.94504 138.962 -25.0201 126.728 -60.9245 117.028C-127.946 98.8474 -201.897 89.3239 -275.369 93.3376C-363.568 98.1628 -445.154 121.494 -520.209 146.178C-672.549 196.032 -806.64 254.354 -923.741 326.959C-958.688 348.623 -992.085 371.524 -1023.86 395.882" stroke="#2EA7E0" stroke-width="0.552088" stroke-miterlimit="10"/>
<path d="M1977.41 594.009C1978.76 499.161 1891.8 424.877 1754.99 318.589C1744.17 310.186 1733.69 301.601 1722.67 293.364C1685.85 266.019 1645.16 239.916 1596.32 225.573C1454.03 183.493 1305.45 233.181 1172.58 267.493C1063.23 295.733 952.131 330.581 831.062 364.705C790.841 376.039 750.563 387.446 709.814 398.239C621.461 421.648 521.083 442.561 435.27 422.465C348.393 402.109 304.067 349.92 257.411 304.71C202.966 252.046 135.945 201.099 47.3075 162.917C16.4095 149.628 -17.3771 138.04 -53.0381 128.853C-119.565 111.639 -192.785 102.573 -265.535 106.328C-352.85 110.838 -433.803 132.844 -508.362 155.872C-659.761 202.347 -792.936 255.888 -910.37 323.884C-945.422 344.173 -979.022 365.704 -1011.13 388.771" stroke="#2EA7E0" stroke-width="0.552088" stroke-miterlimit="10"/>
<path d="M1982.57 587.959C1983.86 497.234 1893.76 429.587 1753.45 323C1742.61 314.769 1732.17 306.316 1721.19 298.223C1684.43 271.297 1644.11 245.564 1596.05 231.111C1455.86 188.639 1310.06 233.943 1177.21 266.461C1069.23 292.889 959.012 326.456 838.024 359.791C798.095 370.795 758.15 381.925 717.751 392.475C630.152 415.354 531.081 435.952 445.957 417.352C359.778 398.509 314.307 349.252 266.597 306.62C210.911 256.965 143.183 208.889 54.7166 172.843C23.8754 160.3 -9.74094 149.357 -45.1504 140.684C-111.19 124.431 -183.68 115.835 -255.692 119.318C-342.122 123.509 -422.451 144.195 -496.507 165.561C-646.965 208.663 -779.223 257.418 -896.989 320.809C-932.139 339.723 -965.95 359.891 -998.381 381.654" stroke="#2EA7E0" stroke-width="0.552088" stroke-miterlimit="10"/>
<path d="M1987.73 581.914C1988.96 495.313 1895.77 434.291 1751.92 327.412C1741.06 319.346 1730.65 311.032 1719.71 303.076C1683 276.576 1643.05 251.207 1595.77 236.649C1457.69 193.785 1314.67 234.717 1181.81 265.424C1075.24 290.058 965.885 322.328 844.97 354.868C805.341 365.534 765.72 376.393 725.67 386.701C638.826 409.055 541.069 429.333 456.626 412.23C371.145 394.899 324.531 348.574 275.766 308.52C218.846 261.874 150.404 216.669 62.1081 182.754C31.3236 170.95 -2.12225 160.654 -37.2802 152.5C-102.825 137.207 -174.585 129.074 -245.874 132.299C-331.428 136.174 -411.116 155.536 -484.677 175.24C-634.194 214.963 -765.535 258.931 -883.642 317.718C-918.889 335.257 -952.911 354.061 -985.675 374.522" stroke="#2EA7E0" stroke-width="0.552088" stroke-miterlimit="10"/>
<path d="M1992.88 575.863C1994.06 493.386 1897.82 438.967 1750.39 331.823C1739.51 323.923 1729.13 315.752 1718.23 307.934C1681.57 281.854 1642 256.855 1595.5 242.186C1459.53 198.93 1319.32 235.511 1186.44 264.391C1081.28 287.247 972.773 318.203 851.94 349.954C812.612 360.289 773.315 370.872 733.614 380.937C647.524 402.761 551.073 422.73 467.329 407.117C382.546 391.305 334.795 347.9 284.967 310.435C226.806 266.793 157.659 224.464 69.5409 192.68C38.8132 181.622 5.54578 171.971 -29.3687 164.336C-94.4185 150.004 -165.448 142.335 -236.016 145.294C-320.685 148.855 -399.748 166.892 -472.806 184.94C-621.381 221.289 -751.805 260.471 -870.245 314.648C-905.598 330.813 -939.823 348.253 -972.912 367.411" stroke="#2EA7E0" stroke-width="0.552088" stroke-miterlimit="10"/>
<path d="M1998.03 569.818C1999.14 491.465 1899.9 443.627 1748.85 336.24C1737.97 328.506 1727.63 320.456 1716.75 312.799C1680.22 287.093 1640.94 262.514 1595.22 247.735C1461.37 204.081 1323.98 236.329 1191.06 263.37C1087.34 284.471 979.662 314.102 858.902 345.046C819.874 355.05 780.91 365.352 741.541 375.174C656.207 396.473 561.07 416.122 478.007 402.005C393.922 387.706 345.027 347.232 294.152 312.346C234.75 271.712 164.897 232.255 76.9491 202.607C46.2783 192.294 13.1813 183.29 -21.4817 176.168C-86.0447 162.802 -156.344 155.597 -226.173 158.291C-309.958 161.532 -388.388 178.249 -460.951 194.635C-608.585 227.606 -738.093 262.007 -856.865 311.579C-892.315 326.369 -926.751 342.446 -960.172 360.306" stroke="#2EA7E0" stroke-width="0.552088" stroke-miterlimit="10"/>
<path d="M2003.19 563.767C2004.25 489.538 1902.03 448.259 1747.32 340.651C1736.43 333.077 1726.11 325.176 1715.27 317.657C1678.79 292.371 1639.89 268.162 1594.94 253.272C1463.19 209.226 1328.66 237.162 1195.68 262.332C1093.4 281.694 986.542 309.983 865.863 340.127C827.143 349.799 788.496 359.825 749.476 369.404C664.896 390.174 571.065 409.508 488.692 396.887C405.305 384.1 355.266 346.558 303.336 314.25C242.701 276.625 172.133 240.039 84.3562 212.522C53.734 202.949 20.8237 194.596 -13.6039 187.988C-77.672 175.582 -147.241 168.841 -216.348 171.27C-299.249 174.196 -377.046 189.589 -449.114 204.313C-595.807 233.91 -724.397 263.524 -843.511 308.486C-879.066 321.902 -913.705 336.615 -947.459 353.172" stroke="#2EA7E0" stroke-width="0.552088" stroke-miterlimit="10"/>
<path d="M2008.35 557.715C2009.34 487.611 1904.2 452.868 1745.78 345.062C1734.89 337.647 1724.58 329.89 1713.78 322.514C1677.37 297.648 1638.83 273.809 1594.67 258.815C1465.02 214.377 1333.36 238.017 1200.3 261.304C1099.48 278.949 993.44 305.88 872.817 335.212C834.398 344.554 796.075 354.304 757.404 363.64C673.578 383.885 581.063 402.899 499.371 391.774C416.681 380.506 365.498 345.89 312.514 316.16C250.637 281.544 179.355 247.828 91.7567 222.448C61.1913 213.621 28.4514 205.913 -5.72468 199.818C-69.2978 188.374 -138.137 182.096 -206.521 184.266C-288.538 186.877 -365.71 200.945 -437.283 214.013C-583.035 240.231 -710.708 265.064 -830.154 305.422C-865.807 317.463 -900.657 330.812 -934.736 346.067" stroke="#2EA7E0" stroke-width="0.552088" stroke-miterlimit="10"/>
<path d="M2013.5 551.67C2014.45 485.69 1906.42 457.456 1744.26 349.473C1733.36 342.219 1723.07 334.605 1712.31 327.373C1675.95 302.926 1637.79 279.457 1594.4 264.352C1466.87 219.522 1338.09 238.895 1204.92 260.266C1105.58 276.211 1000.34 301.773 879.778 330.293C841.658 339.309 803.661 348.777 765.339 357.87C682.268 377.585 591.058 396.285 510.056 386.656C428.064 376.901 375.737 345.211 321.698 318.065C258.588 286.458 186.592 255.612 99.1722 232.364C68.6636 224.281 36.1021 217.22 2.16944 211.644C-60.9168 201.16 -129.026 195.352 -196.672 197.257C-277.804 199.548 -354.343 212.296 -425.421 223.702C-570.232 246.547 -696.988 266.593 -816.767 302.341C-852.525 313.002 -887.578 324.988 -921.989 338.945" stroke="#2EA7E0" stroke-width="0.552088" stroke-miterlimit="10"/>
<path d="M2018.66 545.619C2019.53 483.763 1908.66 462.011 1742.72 353.884C1731.82 346.785 1721.54 339.32 1710.82 332.232C1674.51 308.21 1636.68 285.166 1594.12 269.895C1468.55 224.845 1342.81 239.806 1209.53 259.24C1111.68 273.511 1007.23 297.682 886.732 325.38C848.921 334.07 811.24 343.257 773.266 352.107C690.95 371.297 601.055 389.676 520.735 381.544C439.433 373.301 385.97 344.543 330.884 319.975C266.532 291.377 193.83 263.403 106.581 242.291C76.129 234.948 43.738 228.538 10.0568 223.476C-52.5345 213.958 -119.913 208.608 -186.837 210.248C-267.093 212.224 -342.999 223.647 -413.574 233.391C-557.443 252.858 -683.283 268.123 -803.403 299.266C-839.258 308.552 -874.522 319.175 -909.266 331.834" stroke="#2EA7E0" stroke-width="0.552088" stroke-miterlimit="10"/>
<path d="M2023.82 539.574C2024.64 481.843 1910.95 466.544 1741.19 358.302C1730.29 351.356 1720.02 344.047 1709.35 337.096C1673.1 313.494 1635.64 290.82 1593.86 275.444C1470.4 229.996 1347.57 240.745 1214.17 258.219C1117.82 270.84 1014.15 293.602 893.71 320.478C856.207 328.848 818.842 337.747 781.209 346.354C699.648 365.015 611.059 383.079 531.429 376.449C450.824 369.724 396.225 343.892 340.076 321.902C274.483 296.313 201.076 271.21 113.997 252.229C83.6016 245.631 51.3809 239.868 17.9513 235.318C-44.1451 226.761 -110.793 221.881 -176.995 223.255C-256.366 224.912 -331.64 235.02 -401.72 243.103C-544.648 259.196 -669.579 269.675 -790.023 296.208C-825.984 304.12 -861.443 313.378 -896.519 324.735" stroke="#2EA7E0" stroke-width="0.552088" stroke-miterlimit="10"/>
<path d="M2028.97 533.524C2029.73 479.91 1913.28 471.044 1739.65 362.713C1728.76 355.922 1718.5 348.762 1707.86 341.955C1671.65 318.778 1634.57 296.468 1593.57 280.982C1472.21 235.142 1352.3 241.712 1218.77 257.181C1123.93 268.173 1021.03 289.512 900.655 315.554C863.461 323.603 826.413 332.21 789.129 340.58C708.322 358.716 621.048 376.466 542.098 371.326C462.192 366.114 406.449 343.213 349.245 323.802C282.418 301.216 208.297 278.983 121.388 262.139C91.0501 256.287 59.0079 251.169 25.8217 247.133C-35.7878 239.537 -101.706 235.12 -167.177 236.23C-245.664 237.571 -320.305 246.355 -389.89 252.776C-531.877 265.49 -655.891 271.182 -776.668 293.117C-812.726 299.654 -848.395 307.548 -883.805 317.602" stroke="#2EA7E0" stroke-width="0.552088" stroke-miterlimit="10"/>
<path d="M2034.13 527.472C2034.84 477.983 1915.65 475.504 1738.12 367.118C1727.24 360.477 1716.98 353.476 1706.39 346.807C1670.24 324.05 1633.53 302.11 1593.31 286.519C1474.06 240.281 1357.08 242.705 1223.41 256.148C1130.07 265.534 1027.95 285.437 907.626 310.64C870.74 318.369 834.008 326.689 797.073 334.81C717.021 352.416 631.053 369.851 552.794 366.207C473.585 362.508 416.698 342.534 358.439 325.706C290.371 306.129 215.544 286.767 128.813 272.06C98.532 266.947 66.6604 262.481 33.7257 258.964C-27.3888 252.328 -92.5766 248.375 -157.318 249.225C-234.92 250.252 -308.936 257.711 -378.018 262.47C-519.064 271.811 -642.161 272.717 -763.279 290.041C-799.434 295.203 -835.315 301.734 -871.057 310.485" stroke="#2EA7E0" stroke-width="0.552088" stroke-miterlimit="10"/>
<path d="M2039.28 521.427C2039.92 476.062 1918.06 479.938 1736.59 371.535C1725.72 365.042 1715.45 358.197 1704.91 351.671C1668.81 329.339 1632.46 307.763 1593.03 292.062C1475.89 245.427 1361.86 243.743 1228.02 255.116C1136.21 262.917 1034.85 281.362 914.58 305.721C878.002 313.13 841.595 321.162 805.001 329.041C725.703 346.122 641.042 363.237 563.48 361.09C484.969 358.909 426.938 341.86 367.625 327.611C298.315 311.043 222.774 294.552 136.222 281.975C105.997 277.608 74.3039 273.788 41.6127 270.784C-19.0069 265.114 -83.4642 261.625 -147.484 262.205C-224.201 262.912 -297.584 269.051 -366.172 272.154C-506.276 278.116 -628.456 274.24 -749.906 286.955C-786.168 290.742 -822.251 295.91 -858.317 303.358" stroke="#2EA7E0" stroke-width="0.552088" stroke-miterlimit="10"/>
<path d="M2044.44 515.376C2045.02 474.135 1920.5 484.332 1735.05 375.946C1724.19 369.597 1713.93 362.911 1703.42 356.529C1667.37 334.622 1631.46 313.361 1592.75 297.604C1477.85 250.417 1366.62 244.819 1232.63 254.089C1142.33 260.333 1041.76 277.299 921.533 300.812C885.264 307.906 849.173 315.647 812.928 323.282C734.384 339.834 651.037 356.634 574.157 355.982C496.344 355.314 437.169 341.197 376.809 329.526C306.266 315.967 230.011 302.347 143.629 291.907C113.461 288.285 81.9386 285.111 49.4989 282.621C-10.6339 277.911 -74.3529 274.886 -137.65 275.206C-213.492 275.598 -286.242 280.412 -354.334 281.853C-493.497 284.443 -614.761 275.78 -736.543 283.89C-772.902 286.303 -809.196 290.101 -845.595 296.257" stroke="#2EA7E0" stroke-width="0.552088" stroke-miterlimit="10"/>
<path d="M2049.6 509.331C2050.12 472.214 1922.99 488.694 1733.52 380.363C1722.68 374.163 1712.41 367.637 1701.94 361.393C1665.94 339.911 1630.4 319.015 1592.48 303.148C1479.69 255.563 1371.4 245.935 1237.26 253.062C1148.48 257.777 1048.69 273.247 928.503 295.899C892.542 302.678 856.768 310.126 820.863 317.519C743.074 333.546 661.034 350.026 584.843 350.87C507.728 351.715 447.409 340.53 385.994 331.437C314.21 320.886 237.248 310.137 151.037 301.828C120.918 298.946 89.5821 296.418 57.3858 294.447C-2.25198 290.698 -65.249 288.136 -127.808 288.197C-202.765 288.275 -274.882 291.764 -342.48 291.543C-480.701 290.753 -601.048 277.31 -723.172 280.81C-759.636 281.848 -796.133 284.283 -832.856 289.136" stroke="#2EA7E0" stroke-width="0.552088" stroke-miterlimit="10"/>
<path d="M2054.75 503.28C2055.22 470.287 1925.51 493.006 1731.99 384.769C1721.16 378.712 1710.89 372.347 1700.47 366.246C1664.51 345.189 1629.36 324.657 1592.2 308.685C1481.53 260.709 1376.16 247.089 1241.88 252.025C1154.61 255.232 1055.6 269.183 935.457 290.98C899.804 297.445 864.346 304.594 828.79 311.749C751.756 327.247 671.03 343.412 595.521 345.753C519.104 348.116 457.648 339.851 395.171 333.342C322.145 325.8 244.478 317.922 158.445 311.749C128.383 309.613 97.2171 307.73 65.2724 306.278C6.12142 303.49 -56.1373 301.398 -117.974 301.188C-192.047 300.945 -263.531 303.115 -330.633 301.232C-467.914 297.069 -587.344 278.839 -709.8 277.735C-746.362 277.398 -783.069 278.47 -820.126 282.019" stroke="#2EA7E0" stroke-width="0.552088" stroke-miterlimit="10"/>
<path d="M2059.91 497.229C2060.32 468.36 1928.08 497.279 1730.46 389.18C1719.64 383.261 1709.34 377.078 1698.98 371.104C1663.02 350.517 1628.29 330.305 1591.93 314.228C1483.35 265.86 1380.92 248.292 1246.5 250.998C1160.73 252.72 1062.51 265.148 942.418 286.066C907.082 292.222 871.932 299.074 836.726 305.986C760.446 320.958 681.026 336.803 606.207 340.64C530.488 344.516 467.888 339.183 404.356 335.252C330.096 330.714 251.715 325.712 165.853 321.671C135.848 320.279 104.852 319.043 73.159 318.104C14.503 316.282 -47.0253 314.648 -108.14 314.179C-181.328 313.621 -252.187 314.466 -318.787 310.927C-455.126 303.385 -573.639 280.374 -696.428 274.66C-733.095 272.949 -770.006 272.656 -807.395 274.903" stroke="#2EA7E0" stroke-width="0.552088" stroke-miterlimit="10"/>
<path d="M2065.06 491.183C2065.41 466.439 1930.68 501.513 1728.92 393.596C1718.12 387.821 1707.83 381.804 1697.51 375.963C1661.6 355.8 1627.25 335.958 1591.66 319.765C1485.2 271.005 1385.67 249.54 1251.12 249.959C1166.85 250.224 1069.43 261.101 949.38 281.147C914.352 286.993 879.519 293.547 844.661 300.21C769.136 314.653 691.03 330.189 616.893 335.517C541.871 340.905 478.128 338.503 413.54 337.151C338.04 335.621 258.953 333.49 173.261 331.58C143.312 330.929 112.495 330.343 81.0455 329.918C22.8844 329.057 -37.9218 327.892 -98.3061 327.152C-170.61 326.28 -240.836 325.8 -306.941 320.599C-442.339 309.684 -559.935 281.887 -683.065 271.568C-719.829 268.482 -756.951 266.826 -794.665 267.775" stroke="#2EA7E0" stroke-width="0.552088" stroke-miterlimit="10"/>
<path d="M2070.22 485.132C2070.51 464.512 1933.31 505.697 1727.4 398.007C1716.61 392.37 1706.31 386.518 1696.03 380.821C1660.17 361.078 1626.19 341.606 1591.38 325.308C1487.03 276.156 1390.39 250.837 1255.74 248.932C1172.94 247.762 1076.35 257.075 956.342 276.233C921.622 281.776 887.105 288.025 852.588 294.446C777.818 308.364 701.019 323.58 627.571 330.409C553.247 337.31 488.36 337.84 422.726 339.066C345.992 340.546 266.191 341.285 180.669 341.512C150.777 341.606 120.131 341.666 88.9326 341.755C31.2584 341.854 -28.8094 341.153 -88.4634 340.154C-159.883 338.961 -229.485 337.161 -295.086 330.299C-429.543 316.005 -546.222 283.421 -669.684 268.498C-706.546 264.037 -743.879 261.017 -781.925 260.664" stroke="#2EA7E0" stroke-width="0.552088" stroke-miterlimit="10"/>
<path d="M2075.38 479.087C2075.61 462.591 1935.99 509.839 1725.86 402.424C1715.1 396.925 1704.78 391.239 1694.55 385.685C1658.75 366.367 1625.14 347.26 1591.11 330.851C1488.86 281.302 1395.09 252.184 1260.37 247.906C1179.03 245.322 1083.28 253.057 963.305 271.325C928.901 276.565 894.693 282.511 860.525 288.688C786.509 302.077 711.025 316.977 638.258 325.303C564.632 333.722 498.6 337.173 431.912 340.982C353.936 345.471 273.421 349.081 188.078 351.439C158.243 352.278 127.775 352.985 96.8121 353.586C39.6328 354.646 -19.7047 354.409 -78.6366 353.145C-149.18 351.638 -218.14 348.513 -283.247 339.994C-416.763 322.327 -532.525 284.956 -656.32 265.423C-693.287 259.588 -730.823 255.204 -769.202 253.548" stroke="#2EA7E0" stroke-width="0.552088" stroke-miterlimit="10"/>
<path d="M2080.53 473.036C2080.71 460.664 1938.7 513.924 1724.33 406.83C1713.59 401.464 1703.27 395.954 1693.07 390.538C1657.32 371.64 1624.08 352.902 1590.84 336.389C1490.7 286.447 1399.76 253.576 1264.99 246.868C1185.1 242.893 1090.21 249.038 970.265 266.401C936.17 271.336 902.286 276.973 868.459 282.914C795.198 295.777 721.02 310.358 648.951 320.18C576.023 330.112 508.847 336.494 441.104 342.882C361.887 350.379 280.666 356.861 195.501 361.355C165.723 362.933 135.425 364.292 104.714 365.412C48.0297 367.438 -10.5856 367.665 -68.7872 366.136C-138.446 364.308 -206.774 359.864 -271.394 349.683C-403.968 328.643 -518.813 286.486 -642.949 262.348C-680.014 255.138 -717.76 249.385 -756.464 246.432" stroke="#2EA7E0" stroke-width="0.552088" stroke-miterlimit="10"/>
<path d="M2085.69 466.985C2085.8 458.737 1941.44 517.959 1722.8 411.241C1712.08 406.007 1701.74 400.668 1691.59 395.396C1655.9 376.923 1623.04 358.555 1590.56 341.926C1492.53 291.592 1404.4 255.016 1269.61 245.835C1191.14 240.491 1097.12 245.035 977.227 261.487C943.449 266.124 909.873 271.452 876.395 277.15C803.888 289.483 731.025 303.749 659.638 315.067C587.407 326.512 519.087 335.826 450.289 344.791C369.839 355.298 287.903 364.65 202.909 371.275C173.188 373.599 143.069 375.604 112.601 377.238C56.4033 380.225 -1.47371 380.915 -58.9451 379.126C-127.719 376.984 -195.422 371.214 -259.539 359.372C-391.172 334.953 -505.101 288.015 -629.569 259.267C-666.739 250.682 -704.688 243.566 -743.725 239.315" stroke="#2EA7E0" stroke-width="0.552088" stroke-miterlimit="10"/>
<path d="M2090.84 460.94C2090.9 456.816 1944.23 521.945 1721.26 415.657C1710.55 410.556 1700.22 405.394 1690.1 400.26C1654.46 382.206 1621.97 364.208 1590.28 347.474C1494.36 296.749 1408.97 256.518 1274.22 244.808C1197.13 238.111 1104.06 241.142 984.174 256.573C950.712 260.94 917.444 265.931 884.315 271.386C812.563 283.195 741.006 297.14 670.308 309.954C598.776 322.917 529.32 335.157 459.458 346.701C377.767 360.217 295.126 372.44 210.302 381.202C180.638 384.271 150.689 386.921 120.472 389.069C64.7699 393.016 7.6231 394.17 -49.1261 392.116C-117.016 389.66 -184.086 382.571 -247.708 369.067C-378.4 341.274 -491.411 289.549 -616.213 256.198C-653.48 246.238 -691.64 237.758 -731.001 232.204" stroke="#2EA7E0" stroke-width="0.552088" stroke-miterlimit="10"/>
<path d="M2096 454.889C2096 454.889 1947.05 525.876 1719.73 420.069C1492.41 314.261 1414.16 200.1 991.144 251.66C698.829 287.291 423.067 374.687 128.376 400.895C7.12835 411.677 -119.945 406.598 -235.845 378.756C-365.596 347.585 -477.69 291.079 -602.832 253.117C-640.205 241.783 -678.56 231.939 -718.262 225.082" stroke="#2EA7E0" stroke-width="0.552088" stroke-miterlimit="10"/>
</svg>
