<svg width="1920" height="529" viewBox="0 0 1920 529" fill="none" xmlns="http://www.w3.org/2000/svg">
<path d="M1918.68 528.683C1920.09 413.519 1868.52 298.396 1775.72 209.549C1749.32 184.273 1718.35 160.372 1679.31 149.285C1566.48 117.255 1446 187.275 1351.14 227.031C1236.66 275.005 1123.48 325.28 1004.28 365.764C937.367 388.492 858.772 407.782 794.041 381.402C728.493 354.686 703.551 292.478 676.451 238.305C644.877 175.179 601.394 114.371 537.566 68.9137C473.738 23.4569 387.453 -5.23977 302.007 2.15923C235.096 7.95488 174.127 34.7621 118.449 64.6351C-27.8388 143.131 -152.118 247.048 -243 366.863" stroke="#2EA7E0" stroke-width="0.552088" stroke-miterlimit="10"/>
<path d="M1922.34 523.704C1923.59 421.921 1878.25 322.305 1797.84 236.869C1790.38 228.934 1782.69 221.131 1774.67 213.541C1748.31 188.609 1717.61 165.014 1679.12 153.84C1567.78 121.487 1449.15 187.846 1354.42 226.177C1270.43 260.16 1187.04 296.043 1100.69 328.523C1070.73 339.837 1040.51 350.733 1009.91 361.012C943.527 383.304 865.865 402.336 801.617 377.186C736.563 351.719 710.81 291.918 682.963 239.866C650.508 179.217 606.525 120.769 542.818 77.0659C520.637 61.85 495.816 48.5873 469.303 38.0633C419.695 18.3599 364.161 8.23114 308.979 12.8368C242.695 18.369 182.168 44.0906 126.848 72.601C14.8494 130.28 -84.1199 201.877 -165.711 284.351C-190.061 308.96 -212.858 334.532 -233.975 360.998" stroke="#2EA7E0" stroke-width="0.552088" stroke-miterlimit="10"/>
<path d="M1926 518.73C1927.2 420.34 1879.44 326.243 1796.76 240.503C1789.25 232.722 1781.61 225.019 1773.62 217.542C1747.29 192.961 1716.86 169.665 1678.91 158.401C1569.07 125.72 1452.29 188.423 1357.69 225.332C1274.59 257.753 1191.93 292.686 1105.62 324.481C1075.88 335.527 1045.88 346.192 1015.53 356.27C949.682 378.131 872.946 396.899 809.187 372.981C744.628 348.758 718.064 291.364 689.474 241.438C656.145 183.264 611.651 127.178 548.07 85.2327C525.929 70.63 501.229 57.8986 474.894 47.8016C425.637 28.8885 370.616 19.1413 315.957 23.529C250.299 28.8023 190.222 53.4338 135.252 80.5771C23.9209 135.477 -74.3984 203.14 -156.226 281.822C-180.644 305.299 -203.591 329.749 -224.943 355.144" stroke="#2EA7E0" stroke-width="0.552088" stroke-miterlimit="10"/>
<path d="M1929.65 513.752C1930.82 418.756 1880.67 330.177 1795.68 244.132C1788.14 236.497 1780.54 228.898 1772.58 221.54C1746.29 197.303 1716.12 174.316 1678.73 162.961C1570.39 129.959 1455.48 189.005 1360.98 224.483C1278.77 255.346 1196.74 289.166 1110.56 320.438C1081.01 331.167 1051.28 341.65 1021.16 351.529C955.849 372.954 880.039 391.462 816.775 368.775C752.711 345.797 725.335 290.815 695.998 243.01C661.789 187.311 616.794 133.588 553.34 93.395C531.233 79.4055 506.659 67.2056 480.503 57.531C431.591 39.4082 377.093 30.0425 322.946 34.2166C257.916 39.2311 198.287 62.7725 143.668 88.5486C32.9985 140.673 -64.665 204.398 -146.728 279.292C-171.216 301.639 -194.306 324.967 -215.895 349.294" stroke="#2EA7E0" stroke-width="0.552088" stroke-miterlimit="10"/>
<path d="M1933.31 508.778C1934.43 417.174 1881.93 334.105 1794.58 247.765C1787.01 240.28 1779.45 232.781 1771.52 225.541C1745.27 201.654 1715.37 178.967 1678.53 167.521C1571.68 134.196 1458.65 189.595 1364.24 223.638C1282.95 252.952 1201.58 285.759 1115.49 316.395C1086.14 326.842 1056.65 337.107 1026.78 346.786C961.998 367.78 887.12 386.03 824.338 364.568C760.769 342.839 732.583 290.265 702.498 244.581C667.408 191.357 621.913 139.991 558.58 101.557C536.513 88.1756 512.066 76.5116 486.083 67.2595C437.521 49.9316 383.541 40.9474 329.906 44.899C265.497 49.65 206.317 72.1059 152.055 96.5148C42.0523 145.86 -54.9612 205.651 -137.266 276.752C-161.828 297.968 -185.062 320.174 -206.887 343.43" stroke="#2EA7E0" stroke-width="0.552088" stroke-miterlimit="10"/>
<path d="M1936.96 503.801C1938.04 415.59 1883.2 338.025 1793.5 251.395C1785.89 244.055 1778.37 236.665 1770.48 229.539C1744.26 205.997 1714.62 183.614 1678.33 172.082C1572.98 138.434 1461.85 190.191 1367.52 222.794C1287.14 250.573 1206.45 282.358 1120.42 312.358C1091.28 322.523 1062.03 332.57 1032.4 342.05C968.159 362.607 894.207 380.598 831.915 360.368C768.84 339.883 739.848 289.721 709.01 246.158C673.046 195.405 627.044 146.405 563.832 109.728C541.806 96.9608 517.479 85.8282 491.674 76.9985C443.464 60.4609 389.995 51.8583 336.884 55.5964C273.102 60.0884 214.37 81.4587 160.459 104.501C51.1241 151.07 -45.2394 206.924 -127.78 274.237C-152.412 294.322 -175.795 315.406 -197.855 337.589" stroke="#2EA7E0" stroke-width="0.552088" stroke-miterlimit="10"/>
<path d="M1940.62 498.823C1941.66 414.004 1884.52 341.931 1792.41 255.019C1784.79 247.824 1777.3 240.539 1769.43 233.531C1743.26 210.339 1713.88 188.255 1678.14 176.632C1574.28 142.662 1465.07 190.781 1370.8 221.935C1291.36 248.188 1211.32 278.942 1125.36 308.302C1096.43 318.185 1067.4 328.014 1038.03 337.289C974.32 357.415 901.3 375.143 839.491 356.143C776.911 336.903 747.108 289.153 715.522 247.711C678.678 199.433 632.176 152.796 569.084 117.872C547.098 105.717 522.898 95.1163 497.266 86.7135C449.4 70.9662 396.456 62.7451 343.856 66.2652C280.701 70.4984 222.412 90.7786 168.858 112.453C60.1899 156.243 -35.5236 208.163 -118.3 271.684C-143.006 290.638 -166.534 310.6 -188.824 331.712" stroke="#2EA7E0" stroke-width="0.552088" stroke-miterlimit="10"/>
<path d="M1944.27 493.849C1945.27 412.424 1885.86 345.837 1791.32 258.653C1783.67 251.599 1776.22 244.423 1768.38 237.532C1742.24 214.686 1713.12 192.907 1677.94 181.197C1575.57 146.9 1468.29 191.399 1374.07 221.095C1295.58 245.831 1216.19 275.549 1130.29 304.269C1101.56 313.875 1072.78 323.477 1043.65 332.557C980.475 352.246 908.38 369.715 847.06 351.946C784.975 333.955 754.361 288.608 722.033 249.292C684.315 203.49 637.306 159.214 574.341 126.048C552.396 114.502 528.316 104.437 502.862 96.4563C455.348 81.4993 402.921 73.6643 350.833 76.9664C288.305 80.9361 230.465 100.131 177.256 120.438C69.2552 161.453 -25.8083 209.435 -108.826 269.168C-133.602 286.991 -157.278 305.831 -179.805 325.871" stroke="#2EA7E0" stroke-width="0.552088" stroke-miterlimit="10"/>
<path d="M1947.93 488.871C1948.88 410.838 1887.23 349.725 1790.24 262.281C1782.57 255.368 1775.15 248.306 1767.33 241.529C1741.23 219.032 1712.38 197.557 1677.75 185.757C1576.88 151.138 1471.55 192.016 1377.35 220.245C1299.82 243.477 1221.06 272.147 1135.23 300.221C1106.72 309.546 1078.16 318.93 1049.27 327.81C986.635 347.068 915.473 364.273 854.636 347.74C793.046 330.994 761.62 288.058 728.544 250.863C689.946 207.536 642.431 165.622 579.593 134.209C557.688 123.277 533.735 113.743 508.453 106.185C461.29 92.0228 409.381 84.5648 357.805 87.6533C295.904 91.3642 238.512 109.469 185.654 128.414C78.3207 166.649 -16.0927 210.697 -99.3466 266.637C-124.197 283.329 -148.017 301.043 -170.779 320.02" stroke="#2EA7E0" stroke-width="0.552088" stroke-miterlimit="10"/>
<path d="M1951.58 483.893C1952.5 409.253 1888.62 353.599 1789.15 265.911C1781.47 259.138 1774.06 252.185 1766.28 245.526C1740.22 223.374 1711.63 202.204 1677.56 190.313C1578.18 155.371 1474.81 192.643 1380.63 219.396C1304.08 241.138 1225.94 268.754 1140.17 296.179C1111.86 305.231 1083.54 314.388 1054.9 323.068C992.796 341.89 922.56 358.836 862.212 343.534C801.116 328.032 768.88 287.508 735.056 252.434C695.578 211.583 647.563 172.031 584.845 142.376C562.98 132.056 539.148 123.054 514.045 115.919C467.227 102.547 415.835 95.4748 364.783 98.3408C303.509 101.788 246.56 118.807 194.059 136.385C87.3926 171.845 -6.37078 211.956 -89.8605 264.107C-114.78 279.668 -138.75 296.261 -161.742 314.165" stroke="#2EA7E0" stroke-width="0.552088" stroke-miterlimit="10"/>
<path d="M1955.24 478.92C1956.12 407.673 1890.05 357.47 1788.07 269.54C1780.37 262.904 1772.99 256.064 1765.23 249.519C1739.21 227.717 1710.89 206.846 1677.36 194.869C1579.47 159.605 1478.08 193.279 1383.89 218.542C1308.34 238.809 1230.81 265.357 1145.09 292.128C1117 300.903 1088.91 309.837 1060.51 318.317C998.946 336.708 929.641 353.391 869.776 339.32C809.175 325.062 776.128 286.95 741.556 253.997C701.204 215.622 652.682 178.431 590.085 150.53C568.261 140.819 544.55 132.348 519.625 125.639C473.157 113.058 422.283 106.367 371.743 109.02C311.09 112.208 254.596 128.137 202.445 144.348C96.4468 177.028 3.33333 213.201 -80.398 261.564C-105.386 275.995 -129.506 291.465 -152.734 308.298" stroke="#2EA7E0" stroke-width="0.552088" stroke-miterlimit="10"/>
<path d="M1958.89 473.941C1959.73 406.088 1891.5 361.317 1786.98 273.169C1779.27 266.669 1771.91 259.947 1764.18 253.516C1738.19 232.059 1710.14 211.493 1677.17 199.424C1580.78 163.837 1481.38 193.933 1387.17 217.693C1312.62 236.497 1235.7 261.964 1150.03 288.085C1122.15 296.588 1094.29 305.295 1066.14 313.575C1005.11 331.53 936.734 347.958 877.364 335.113C817.258 322.105 783.405 286.396 748.08 255.573C706.847 219.668 657.825 184.844 595.355 158.696C573.571 149.598 549.986 141.659 525.233 135.377C479.117 123.586 428.761 117.277 378.732 119.711C318.707 122.641 262.656 137.48 210.861 152.328C105.53 182.233 13.0665 214.468 -70.9007 259.039C-95.9637 272.338 -120.227 286.686 -143.685 302.447" stroke="#2EA7E0" stroke-width="0.552088" stroke-miterlimit="10"/>
<path d="M1962.55 468.968C1963.33 404.507 1892.98 365.151 1785.89 276.803C1778.18 270.44 1770.84 263.817 1763.13 257.518C1737.23 236.37 1709.39 216.149 1676.98 203.99C1582.08 168.076 1484.68 194.606 1390.45 216.853C1316.91 234.212 1240.58 258.59 1154.97 284.048C1127.3 292.278 1099.68 300.753 1071.77 308.834C1011.27 326.357 943.821 342.522 884.934 330.908C825.323 319.144 790.659 285.846 754.592 257.145C712.479 223.716 662.957 191.254 600.607 166.863C578.863 158.378 555.399 150.97 530.825 145.111C485.053 134.115 435.215 128.187 385.71 130.404C326.311 133.07 270.709 146.823 219.266 160.304C114.602 187.429 22.7882 215.731 -61.4148 256.514C-86.5469 268.682 -110.96 281.908 -134.654 296.602" stroke="#2EA7E0" stroke-width="0.552088" stroke-miterlimit="10"/>
<path d="M1966.2 463.99C1966.95 402.922 1894.49 368.961 1784.8 280.432C1777.08 274.2 1769.77 267.701 1762.08 261.514C1736.23 240.712 1708.64 220.795 1676.78 208.545C1583.37 172.309 1488 195.291 1393.72 215.999C1321.22 231.927 1245.46 255.201 1159.9 280C1132.45 287.958 1105.05 296.207 1077.39 304.087C1017.43 321.174 950.907 337.08 892.51 326.697C833.393 316.178 797.918 285.292 761.103 258.712C718.115 227.758 668.087 197.658 605.858 175.02C584.149 167.144 560.817 160.272 536.41 154.835C490.989 144.629 441.668 139.083 392.676 141.082C333.904 143.489 278.75 156.152 227.658 168.266C123.661 192.616 32.4974 216.98 -51.9472 253.97C-77.1541 265.007 -101.711 277.112 -125.641 290.733" stroke="#2EA7E0" stroke-width="0.552088" stroke-miterlimit="10"/>
<path d="M1969.86 459.011C1970.57 401.336 1896.03 372.753 1783.72 284.061C1775.99 277.961 1768.69 271.579 1761.03 265.511C1735.21 245.053 1707.9 225.441 1676.59 213.105C1584.67 176.546 1491.33 195.995 1397 215.153C1325.52 229.67 1250.35 251.826 1164.83 275.958C1137.59 283.643 1110.43 291.664 1083.01 299.345C1023.58 316 957.995 331.643 900.08 322.491C841.458 313.221 805.172 284.742 767.609 260.283C723.741 231.804 673.207 204.066 611.104 183.186C589.435 175.924 566.225 169.583 541.996 164.568C496.926 155.153 448.123 149.988 399.642 151.773C341.497 153.922 286.787 165.495 236.045 176.246C132.715 197.816 42.202 218.246 -42.4784 251.449C-67.7543 261.355 -92.4607 272.338 -116.621 284.887" stroke="#2EA7E0" stroke-width="0.552088" stroke-miterlimit="10"/>
<path d="M1973.52 454.038C1974.18 399.756 1897.6 376.528 1782.63 287.69C1774.91 281.721 1767.62 275.458 1759.99 269.508C1734.21 249.396 1707.15 230.087 1676.39 217.66C1585.98 180.779 1494.68 196.717 1400.28 214.299C1329.85 227.417 1255.24 248.446 1169.77 271.911C1142.74 279.328 1115.8 287.117 1088.64 294.598C1029.74 310.818 965.081 326.202 907.655 318.28C849.528 310.255 812.431 284.183 774.12 261.85C729.378 235.847 678.338 210.47 616.362 191.344C594.733 184.694 571.649 178.885 547.592 174.297C502.868 165.672 454.582 160.894 406.625 162.461C349.107 164.346 294.845 174.833 244.454 184.217C141.792 203.012 51.9288 219.504 -32.9875 248.914C-58.3381 257.685 -83.1884 267.546 -107.584 279.028" stroke="#2EA7E0" stroke-width="0.552088" stroke-miterlimit="10"/>
<path d="M1977.17 449.06C1977.79 398.171 1899.19 380.275 1781.54 291.319C1773.82 285.478 1766.53 279.337 1758.93 273.505C1733.19 253.743 1706.36 234.784 1676.19 222.221C1587.18 185.158 1498.03 197.467 1403.54 213.455C1334.17 225.196 1260.12 245.081 1174.7 267.868C1147.89 275.018 1121.18 282.576 1094.26 289.857C1035.9 305.645 972.168 320.765 915.226 314.075C857.587 307.293 819.685 283.634 780.632 263.422C735.01 239.894 683.469 216.879 621.614 199.511C600.025 193.47 577.062 188.196 553.184 184.031C508.81 176.201 461.043 171.8 413.597 173.149C356.701 174.775 302.887 184.172 252.853 192.189C150.858 208.204 61.6449 220.763 -23.513 246.385C-48.9326 254.024 -73.9324 262.763 -98.564 273.178" stroke="#2EA7E0" stroke-width="0.552088" stroke-miterlimit="10"/>
<path d="M1980.83 444.087C1981.41 396.591 1900.81 384.004 1780.46 294.953C1772.74 289.239 1765.45 283.226 1757.89 277.507C1732.19 258.09 1705.63 239.436 1676.01 226.786C1588.49 189.396 1501.4 198.239 1406.83 212.615C1338.52 222.998 1265.03 241.725 1179.64 263.836C1153.06 270.721 1126.57 278.043 1099.89 285.124C1042.06 300.476 979.261 315.338 922.807 309.883C865.663 304.351 826.955 283.098 787.149 265.007C740.647 243.955 688.606 223.302 626.871 207.687C605.323 202.259 582.48 197.517 558.781 193.774C514.758 186.734 467.508 182.719 420.574 183.85C364.305 185.213 310.94 193.529 261.257 200.179C159.929 213.419 71.3602 222.04 -14.0278 243.869C-39.5222 250.377 -64.66 257.994 -89.5275 267.337" stroke="#2EA7E0" stroke-width="0.552088" stroke-miterlimit="10"/>
<path d="M1984.48 439.109C1985.02 395.001 1902.46 387.706 1779.37 298.582C1771.65 292.996 1764.37 287.105 1756.83 281.504C1731.16 262.437 1704.87 244.082 1675.8 231.342C1589.77 193.629 1504.76 199.034 1410.1 211.761C1342.86 220.804 1269.9 238.359 1184.57 259.784C1158.2 266.407 1131.93 273.488 1105.5 280.373C1048.21 295.294 986.342 309.897 930.372 305.668C873.722 301.38 834.204 282.54 793.65 266.57C746.273 247.989 693.725 229.698 632.112 215.84C610.604 211.025 587.888 206.815 564.361 203.495C520.683 197.245 473.951 193.611 427.535 194.524C371.892 195.628 318.976 202.854 269.644 208.137C168.984 218.597 81.0647 223.28 -4.55914 241.325C-30.1226 246.703 -55.41 253.198 -80.5133 261.469" stroke="#2EA7E0" stroke-width="0.552088" stroke-miterlimit="10"/>
<path d="M1988.14 434.13C1988.64 393.415 1904.14 391.376 1778.29 302.207C1770.57 296.742 1763.3 290.983 1755.79 285.496C1730.16 266.774 1704.13 248.724 1675.62 235.897C1591.08 197.858 1508.15 199.851 1413.38 210.911C1347.21 218.633 1274.81 235.007 1189.51 255.741C1163.36 262.1 1137.32 268.945 1111.13 275.626C1054.38 290.111 993.435 304.455 937.954 301.457C881.799 298.414 841.469 281.981 800.167 268.137C751.911 252.031 698.863 236.102 637.376 224.002C615.908 219.796 593.313 216.121 569.964 213.228C526.637 207.768 480.423 204.516 434.525 205.216C379.509 206.06 327.036 212.197 278.06 216.112C178.067 223.797 90.7982 224.542 4.93279 238.795C-20.6997 243.042 -46.1367 248.415 -71.4758 255.614" stroke="#2EA7E0" stroke-width="0.552088" stroke-miterlimit="10"/>
<path d="M1991.79 429.157C1992.25 391.835 1905.85 395.023 1777.2 305.84C1769.49 300.499 1762.21 294.867 1754.74 289.498C1729.14 271.125 1703.38 253.375 1675.42 240.457C1592.38 202.091 1511.53 200.705 1416.65 210.062C1351.56 216.48 1279.71 231.655 1194.44 251.694C1168.51 257.79 1142.7 264.399 1116.75 270.88C1060.54 284.933 1000.52 299.014 945.53 297.247C889.87 295.453 848.729 281.427 806.679 269.704C757.543 256.073 703.988 242.506 642.628 232.159C621.2 228.566 598.731 225.423 575.555 222.952C532.579 218.288 486.883 215.417 441.497 215.894C387.108 216.475 335.084 221.526 286.459 224.079C187.133 228.984 100.514 225.796 14.4128 236.256C-11.2945 239.372 -36.8752 243.623 -62.4445 249.75" stroke="#2EA7E0" stroke-width="0.552088" stroke-miterlimit="10"/>
<path d="M1995.44 424.178C1995.86 390.249 1907.58 398.638 1776.11 309.469C1768.41 304.246 1761.13 298.745 1753.68 293.495C1728.13 275.472 1702.67 257.98 1675.22 245.017C1593.77 206.196 1514.91 201.591 1419.92 209.217C1355.9 214.354 1284.6 228.312 1199.37 247.656C1173.66 253.493 1148.07 259.861 1122.37 266.142C1066.69 279.759 1007.6 293.581 953.099 293.045C897.934 292.495 855.982 280.881 813.191 271.279C763.18 260.124 709.119 248.919 647.879 240.33C626.492 237.35 604.144 234.739 581.146 232.69C538.515 228.816 493.342 226.327 448.468 226.59C394.701 226.913 343.125 230.873 294.851 232.059C196.193 234.189 110.224 227.063 23.8864 233.735C-1.8899 235.72 -27.6202 238.845 -53.4253 243.909" stroke="#2EA7E0" stroke-width="0.552088" stroke-miterlimit="10"/>
<path d="M1999.1 419.205C1999.48 388.669 1909.35 402.227 1775.03 313.103C1767.33 308.002 1760.06 302.634 1752.64 297.496C1727.11 279.823 1701.92 262.632 1675.03 249.578C1595.07 210.43 1518.3 202.509 1423.21 208.372C1360.26 212.251 1289.51 224.978 1204.31 243.614C1178.82 249.192 1153.45 255.319 1128 261.401C1072.85 274.586 1014.69 288.144 960.675 288.839C906.005 289.534 863.242 280.332 819.702 272.851C768.811 264.171 714.25 255.328 653.131 248.492C631.779 246.121 609.563 244.041 586.738 242.42C544.458 239.335 499.796 237.228 455.446 237.278C402.306 237.342 351.179 240.212 303.256 240.03C205.264 239.381 119.945 228.321 33.3664 231.201C7.51532 232.055 -18.3587 234.058 -44.3939 238.05" stroke="#2EA7E0" stroke-width="0.552088" stroke-miterlimit="10"/>
<path d="M2002.75 414.227C2003.09 387.084 1911.13 405.774 1773.94 316.728C1766.26 311.745 1758.98 306.508 1751.59 301.489C1726.1 284.166 1701.18 267.274 1674.84 254.134C1596.37 214.663 1521.67 203.458 1426.48 207.519C1364.61 210.158 1294.42 221.635 1209.24 239.567C1183.96 244.886 1158.83 250.768 1133.62 256.654C1079.01 269.404 1021.78 282.703 968.245 284.629C914.07 286.573 870.501 279.774 826.208 274.418C774.437 268.214 719.375 261.732 658.383 256.654C637.07 254.897 614.976 253.348 592.329 252.153C550.394 249.86 506.256 248.138 462.417 247.966C409.904 247.766 359.226 249.551 311.654 248.002C214.33 244.577 129.661 229.579 42.8461 228.671C16.926 228.394 -9.09764 229.275 -35.3687 232.196" stroke="#2EA7E0" stroke-width="0.552088" stroke-miterlimit="10"/>
<path d="M2006.41 409.249C2006.71 385.499 1912.96 409.29 1772.85 320.357C1765.18 315.488 1757.88 310.401 1750.54 305.486C1725.04 288.549 1700.42 271.92 1674.64 258.694C1597.67 218.901 1525.05 204.448 1429.75 206.674C1368.95 208.091 1299.32 218.315 1214.18 235.525C1189.12 240.589 1164.21 246.226 1139.25 251.913C1085.17 264.231 1028.86 277.266 975.821 280.423C922.14 283.612 877.761 279.224 832.72 275.99C780.074 272.256 724.506 268.141 663.635 264.817C642.363 263.672 620.389 262.655 597.92 261.882C556.336 260.383 512.716 259.039 469.389 258.653C417.503 258.194 367.268 258.889 320.052 255.978C223.395 249.773 139.376 230.842 52.3259 226.141C26.331 224.733 0.163607 224.492 -26.3433 226.341" stroke="#2EA7E0" stroke-width="0.552088" stroke-miterlimit="10"/>
<path d="M2010.07 404.275C2010.31 383.918 1914.8 412.773 1771.76 323.99C1764.11 319.239 1756.81 314.288 1749.49 309.483C1724.04 292.895 1699.68 276.571 1674.45 263.249C1598.97 223.134 1528.42 205.474 1433.03 205.82C1373.29 206.038 1304.22 214.985 1219.11 231.478C1194.28 236.288 1169.58 241.679 1144.87 247.161C1091.33 259.043 1035.96 271.825 983.397 276.208C930.21 280.641 885.02 278.665 839.231 277.552C785.706 276.294 729.637 274.541 668.887 272.969C647.655 272.433 625.807 271.952 603.511 271.602C562.278 270.893 519.17 269.935 476.361 269.326C425.102 268.609 375.315 268.214 328.451 263.935C232.461 254.955 149.092 232.086 61.8 223.597C35.736 221.058 9.41897 219.696 -17.318 220.477" stroke="#2EA7E0" stroke-width="0.552088" stroke-miterlimit="10"/>
<path d="M2013.72 399.297C2013.93 382.332 1916.67 416.216 1770.68 327.619C1763.04 322.981 1755.73 318.167 1748.44 313.479C1723.02 297.237 1698.93 281.217 1674.26 267.809C1600.27 227.371 1531.76 206.541 1436.3 204.974C1377.61 204.012 1309.12 211.674 1224.05 227.435C1199.43 231.995 1174.96 237.137 1150.49 242.419C1097.48 253.87 1043.04 266.387 990.967 272.006C938.276 277.684 892.274 278.12 845.743 279.128C791.343 280.345 734.769 280.954 674.139 281.14C652.947 281.217 631.22 281.267 609.103 281.34C568.215 281.422 525.63 280.845 483.339 280.023C432.707 279.042 383.363 277.561 336.855 271.915C241.533 260.156 158.814 233.349 71.2858 221.071C45.1528 217.401 18.6862 214.917 -8.28662 214.626" stroke="#2EA7E0" stroke-width="0.552088" stroke-miterlimit="10"/>
<path d="M2017.38 394.324C2017.54 380.752 1918.56 419.623 1769.59 331.253C1761.96 326.729 1754.64 322.051 1747.39 317.481C1722.01 301.589 1698.19 285.869 1674.06 272.37C1601.57 231.605 1535.09 207.65 1439.58 204.13C1381.92 202.004 1314.04 208.368 1228.98 223.397C1204.59 227.708 1180.34 232.6 1156.12 237.682C1103.64 248.697 1050.13 260.956 998.543 267.805C946.346 274.732 899.534 277.57 852.255 280.704C796.975 284.397 739.894 287.368 679.391 289.307C658.24 289.997 636.639 290.579 614.688 291.074C574.152 291.946 532.085 291.751 490.305 290.711C440.294 289.471 391.405 286.9 345.248 279.891C250.593 265.357 168.524 234.612 80.7603 218.542C54.5526 213.741 27.9422 210.135 0.733521 208.772" stroke="#2EA7E0" stroke-width="0.552088" stroke-miterlimit="10"/>
<path d="M2021.04 389.346C2021.16 379.167 1920.48 422.984 1768.51 334.877C1760.89 330.463 1753.57 325.93 1746.34 321.474C1721 305.926 1697.44 290.511 1673.87 276.926C1602.87 235.838 1538.41 208.795 1442.86 203.276C1386.22 200.006 1318.95 205.061 1233.92 219.346C1209.75 223.407 1185.72 228.044 1161.74 232.931C1109.8 243.514 1057.22 255.51 1006.12 263.59C954.422 271.761 906.798 277.012 858.772 282.267C802.612 288.435 745.03 293.767 684.654 297.465C663.543 298.764 642.063 299.881 620.29 300.803C580.104 302.47 538.55 302.656 497.288 301.398C447.904 299.895 399.463 296.238 353.651 287.863C259.664 270.553 178.245 235.87 90.2394 216.012C63.9627 210.08 37.2027 205.347 9.76392 202.917" stroke="#2EA7E0" stroke-width="0.552088" stroke-miterlimit="10"/>
<path d="M2024.69 384.367C2024.77 377.582 1922.43 426.304 1767.42 338.506C1759.82 334.2 1752.49 329.808 1745.3 325.471C1719.99 310.273 1696.69 295.162 1673.67 281.481C1604.17 240.071 1541.69 209.98 1446.13 202.427C1390.5 198.03 1323.85 201.768 1238.85 215.303C1214.91 219.119 1191.1 223.502 1167.37 228.189C1115.97 238.336 1064.31 250.073 1013.7 259.384C962.493 268.799 914.058 276.462 865.284 283.838C808.249 292.482 750.162 300.176 689.906 305.626C668.835 307.539 647.482 309.187 625.882 310.532C586.041 312.989 545.01 313.557 504.266 312.085C455.509 310.323 407.511 305.576 362.056 295.834C268.735 275.744 187.966 237.128 99.7252 213.477C73.3736 206.414 46.4699 200.56 18.7953 197.062" stroke="#2EA7E0" stroke-width="0.552088" stroke-miterlimit="10"/>
<path d="M2028.34 379.394C2028.38 376.001 1924.4 429.583 1766.33 342.14C1758.74 337.943 1751.41 333.696 1744.24 329.472C1718.97 314.62 1695.94 299.812 1673.47 286.046C1605.47 244.313 1544.94 211.215 1449.4 201.582C1394.75 196.072 1328.77 198.566 1243.78 211.261C1220.06 214.853 1196.47 218.959 1172.98 223.447C1122.12 233.162 1071.39 244.636 1021.27 255.178C970.552 265.842 921.312 275.912 871.784 285.41C813.869 296.529 755.282 306.585 695.147 313.793C674.116 316.318 652.884 318.498 631.462 320.265C591.972 323.513 551.459 324.462 511.227 322.773C463.097 320.751 415.548 314.919 370.443 303.809C277.79 280.945 197.671 238.39 109.194 210.952C82.7736 202.758 55.7202 195.781 27.8156 191.212" stroke="#2EA7E0" stroke-width="0.552088" stroke-miterlimit="10"/>
<path d="M2032 374.416C2032 374.416 1926.4 432.817 1765.25 345.769C1604.09 258.721 1548.61 164.8 1248.72 207.218C1041.48 236.533 845.985 308.433 637.065 329.994C551.108 338.865 461.02 334.686 378.853 311.781C286.867 286.136 207.399 239.649 118.68 208.417C92.1846 199.093 64.9932 190.994 36.8469 185.353" stroke="#2EA7E0" stroke-width="0.552088" stroke-miterlimit="10"/>
</svg>
