<svg width="1920" height="921" viewBox="0 0 1920 921" fill="none" xmlns="http://www.w3.org/2000/svg">
<path d="M1982.86 642.401C1984.43 502.419 1927.27 362.487 1824.41 254.493C1795.15 223.769 1760.83 194.718 1717.55 181.242C1592.5 142.308 1458.97 227.418 1353.84 275.743C1226.96 334.054 1101.51 395.165 969.404 444.372C895.238 471.999 808.129 495.446 736.385 463.381C663.736 430.907 636.092 355.293 606.057 289.445C571.062 212.716 522.869 138.802 452.126 83.5495C381.384 28.2965 285.751 -6.58448 191.049 2.40905C116.889 9.4537 49.3145 42.038 -12.3942 78.3488C-174.53 173.761 -312.273 300.073 -413 445.709" stroke="#2EA7E0" stroke-width="0.552088" stroke-miterlimit="10"/>
<path d="M1986.92 636.349C1988.3 512.632 1938.04 391.548 1848.93 287.7C1840.66 278.055 1832.14 268.57 1823.25 259.345C1794.03 229.04 1760.01 200.359 1717.34 186.778C1593.95 147.453 1462.46 228.113 1357.47 274.704C1264.39 316.011 1171.96 359.626 1076.25 399.106C1043.05 412.858 1009.56 426.103 975.639 438.597C902.066 465.693 815.99 488.826 744.781 458.257C672.681 427.301 644.137 354.613 613.274 291.344C577.303 217.623 528.556 146.58 457.947 93.4585C433.363 74.9636 405.852 58.8426 376.468 46.0507C321.485 22.1011 259.936 9.78949 198.776 15.3877C125.31 22.1121 58.2272 53.3769 -3.08618 88.0314C-127.218 158.141 -236.908 245.167 -327.339 345.415C-354.326 375.327 -379.593 406.41 -402.997 438.58" stroke="#2EA7E0" stroke-width="0.552088" stroke-miterlimit="10"/>
<path d="M1990.97 630.304C1992.31 510.711 1939.37 396.334 1847.73 292.117C1839.41 282.659 1830.94 273.296 1822.09 264.209C1792.9 234.33 1759.18 206.013 1717.12 192.321C1595.38 152.598 1465.95 228.814 1361.1 273.677C1268.99 313.085 1177.37 355.546 1081.72 394.192C1048.75 407.619 1015.51 420.582 981.868 432.833C908.888 459.405 823.838 482.217 753.172 453.144C681.619 423.702 652.177 353.94 620.491 293.254C583.551 222.542 534.236 154.371 463.768 103.385C439.228 85.6356 411.852 70.1606 382.665 57.8876C328.071 34.8987 267.09 23.0509 206.509 28.3841C133.739 34.7938 67.1531 64.7336 6.22863 97.7264C-117.163 164.457 -226.134 246.702 -316.825 342.34C-343.889 370.878 -369.321 400.597 -392.987 431.464" stroke="#2EA7E0" stroke-width="0.552088" stroke-miterlimit="10"/>
<path d="M1995.02 624.253C1996.31 508.784 1940.73 401.116 1846.53 296.528C1838.17 287.248 1829.76 278.011 1820.93 269.067C1791.8 239.608 1758.36 211.667 1716.92 197.865C1596.83 157.75 1469.47 229.521 1364.74 272.645C1273.63 310.159 1182.7 351.268 1087.2 389.279C1054.44 402.32 1021.49 415.062 988.11 427.07C915.723 453.112 831.7 475.609 761.582 448.032C690.577 420.102 660.236 353.272 627.721 295.165C589.806 227.462 539.937 162.161 469.608 113.307C445.107 96.3023 417.871 81.4732 388.881 69.7138C334.67 47.6854 274.269 36.3013 214.256 41.375C142.181 47.4701 76.092 76.0848 15.5564 107.416C-107.102 170.774 -215.346 248.232 -306.299 339.265C-333.44 366.428 -359.031 394.783 -382.958 424.353" stroke="#2EA7E0" stroke-width="0.552088" stroke-miterlimit="10"/>
<path d="M1999.07 618.207C2000.31 506.862 1942.12 405.891 1845.32 300.944C1836.92 291.846 1828.55 282.731 1819.76 273.931C1790.66 244.896 1757.52 217.319 1716.69 203.407C1598.27 162.9 1472.99 230.238 1368.36 271.617C1278.25 307.249 1188.08 347.126 1092.66 384.365C1060.13 397.063 1027.44 409.54 994.333 421.305C922.538 446.823 839.548 469.006 769.965 442.919C699.509 416.507 668.269 352.603 634.925 297.074C596.035 232.38 545.611 169.945 475.416 123.227C450.96 106.962 423.864 92.7848 395.066 81.5388C341.243 60.4766 281.416 49.5563 221.97 54.3595C150.583 60.1343 84.992 87.4296 24.8517 117.099C-97.0674 177.078 -204.59 249.755 -295.811 336.179C-323.035 361.967 -348.786 388.958 -372.974 417.225" stroke="#2EA7E0" stroke-width="0.552088" stroke-miterlimit="10"/>
<path d="M2003.12 612.158C2004.32 504.937 1943.54 410.656 1844.11 305.356C1835.68 296.435 1827.35 287.452 1818.6 278.79C1789.55 250.175 1756.69 222.968 1716.48 208.951C1599.71 168.052 1476.54 230.963 1371.99 270.591C1282.9 304.357 1193.47 342.992 1098.13 379.458C1065.83 391.814 1033.4 404.026 1000.57 415.548C929.366 440.535 847.403 462.404 778.362 437.814C708.454 412.914 676.322 351.942 642.143 298.991C602.283 237.301 551.298 177.741 481.237 133.16C456.825 117.641 429.863 104.109 401.263 93.3766C347.83 73.2751 288.569 62.8185 229.704 67.3622C159.012 72.8223 93.918 98.7981 34.1666 126.806C-87.0129 183.411 -193.816 251.302 -285.298 333.121C-312.598 357.534 -338.514 383.162 -362.965 410.126" stroke="#2EA7E0" stroke-width="0.552088" stroke-miterlimit="10"/>
<path d="M2007.17 606.106C2008.33 503.009 1945 415.404 1842.91 309.762C1834.46 301.016 1826.17 292.161 1817.44 283.642C1788.43 255.453 1755.87 228.61 1716.26 214.482C1601.15 173.191 1480.11 231.68 1375.62 269.547C1287.58 301.458 1198.87 338.84 1103.6 374.527C1071.53 386.54 1039.36 398.488 1006.8 409.761C936.194 434.224 855.264 455.772 786.759 432.679C717.399 409.292 684.368 351.251 649.36 300.878C608.525 242.197 556.985 185.509 487.058 143.058C462.691 128.285 435.869 115.399 407.46 105.185C354.409 86.0443 295.729 76.0515 237.431 80.3302C167.434 85.4756 102.831 110.126 43.4751 136.472C-76.9649 189.699 -183.047 252.808 -274.791 330.018C-302.174 353.056 -328.25 377.321 -352.955 402.982" stroke="#2EA7E0" stroke-width="0.552088" stroke-miterlimit="10"/>
<path d="M2011.22 600.061C2012.32 501.088 1946.48 420.152 1841.7 314.178C1833.22 305.605 1824.96 296.882 1816.27 288.506C1787.3 260.736 1755.03 234.264 1716.04 220.031C1602.58 178.343 1483.68 232.431 1379.25 268.526C1292.25 298.593 1204.27 334.716 1109.06 369.625C1077.22 381.301 1045.32 392.973 1013.03 404.009C943.016 427.942 863.111 449.175 795.148 427.577C726.337 405.709 692.407 350.589 656.576 302.8C614.772 247.127 562.671 193.31 492.885 152.996C468.562 138.962 441.874 126.728 413.663 117.028C361.001 98.8474 302.894 89.3239 245.164 93.3376C175.862 98.1628 111.756 121.494 52.7826 146.178C-66.9178 196.032 -172.28 254.354 -264.291 326.959C-291.751 348.623 -317.992 371.524 -342.959 395.882" stroke="#2EA7E0" stroke-width="0.552088" stroke-miterlimit="10"/>
<path d="M2015.28 594.009C2016.33 499.161 1948 424.877 1840.5 318.589C1832.01 310.186 1823.77 301.601 1815.11 293.364C1786.18 266.019 1754.21 239.916 1715.83 225.573C1604.03 183.493 1487.29 233.181 1382.88 267.493C1296.96 295.733 1209.67 330.581 1114.54 364.705C1082.93 376.039 1051.28 387.446 1019.27 398.239C949.844 421.648 870.972 442.561 803.545 422.465C735.282 402.109 700.453 349.92 663.793 304.71C621.014 252.046 568.352 201.099 498.706 162.917C474.428 149.628 447.88 138.04 419.86 128.853C367.587 111.639 310.054 102.573 252.891 106.328C184.284 110.838 120.675 132.844 62.0908 155.872C-56.87 202.347 -161.511 255.888 -253.784 323.884C-281.327 344.173 -307.728 365.704 -332.956 388.771" stroke="#2EA7E0" stroke-width="0.552088" stroke-miterlimit="10"/>
<path d="M2019.33 587.959C2020.34 497.234 1949.55 429.587 1839.3 323C1830.78 314.769 1822.58 306.316 1813.95 298.223C1785.06 271.297 1753.38 245.564 1715.62 231.111C1605.47 188.639 1490.9 233.943 1386.52 266.461C1301.68 292.889 1215.07 326.456 1120.01 359.791C1088.63 370.795 1057.25 381.925 1025.5 392.475C956.673 415.354 878.828 435.952 811.942 417.352C744.228 398.509 708.499 349.252 671.011 306.62C627.256 256.965 574.039 208.889 504.527 172.843C480.294 160.3 453.88 149.357 426.057 140.684C374.167 124.431 317.208 115.835 260.625 119.318C192.713 123.509 129.595 144.195 71.4061 165.561C-46.8152 208.663 -150.736 257.418 -243.27 320.809C-270.889 339.723 -297.456 359.891 -322.939 381.654" stroke="#2EA7E0" stroke-width="0.552088" stroke-miterlimit="10"/>
<path d="M2023.38 581.914C2024.35 495.313 1951.13 434.291 1838.09 327.412C1829.56 319.346 1821.38 311.032 1812.78 303.076C1783.94 276.576 1752.55 251.207 1715.4 236.649C1606.91 193.785 1494.53 234.717 1390.14 265.424C1306.39 290.058 1220.47 322.328 1125.46 354.868C1094.33 365.534 1063.19 376.393 1031.72 386.701C963.488 409.055 886.675 429.333 820.325 412.23C753.159 394.899 716.532 348.574 678.215 308.52C633.491 261.874 579.713 216.669 510.335 182.754C486.146 170.95 459.866 160.654 432.241 152.5C380.74 137.207 324.355 129.074 268.339 132.299C201.116 136.174 138.502 155.536 80.7013 175.24C-36.7805 214.963 -139.981 258.931 -232.783 317.718C-260.478 335.257 -287.211 354.061 -312.955 374.522" stroke="#2EA7E0" stroke-width="0.552088" stroke-miterlimit="10"/>
<path d="M2027.43 575.863C2028.35 493.386 1952.73 438.967 1836.89 331.823C1828.35 323.923 1820.19 315.752 1811.62 307.934C1782.82 281.854 1751.73 256.855 1715.19 242.186C1608.35 198.93 1498.18 235.511 1393.77 264.391C1311.15 287.247 1225.89 318.203 1130.94 349.954C1100.04 360.289 1069.16 370.872 1037.97 380.937C970.323 402.761 894.537 422.73 828.735 407.117C762.117 391.305 724.597 347.9 685.445 310.435C639.746 266.793 585.413 224.464 516.175 192.68C492.031 181.622 465.891 171.971 438.458 164.336C387.345 150.004 331.534 142.335 276.086 145.294C209.557 148.855 147.434 166.892 90.029 184.94C-26.7131 221.289 -129.193 260.471 -222.257 314.648C-250.035 330.813 -276.927 348.253 -302.926 367.411" stroke="#2EA7E0" stroke-width="0.552088" stroke-miterlimit="10"/>
<path d="M2031.48 569.818C2032.35 491.465 1954.37 443.627 1835.68 336.24C1827.14 328.506 1819.01 320.456 1810.46 312.799C1781.75 287.093 1750.9 262.514 1714.97 247.735C1609.79 204.081 1501.84 236.329 1397.41 263.37C1315.9 284.471 1231.3 314.102 1136.41 345.046C1105.75 355.05 1075.13 365.352 1044.2 375.174C977.145 396.473 902.392 416.122 837.125 402.005C771.056 387.706 732.637 347.232 692.662 312.346C645.987 271.712 591.1 232.255 521.996 202.607C497.897 192.294 471.891 183.29 444.655 176.168C393.925 162.802 338.687 155.597 283.819 158.291C217.986 161.532 156.36 178.249 99.3438 194.635C-16.6588 227.606 -118.419 262.007 -211.743 311.579C-239.598 326.369 -266.656 342.446 -292.917 360.306" stroke="#2EA7E0" stroke-width="0.552088" stroke-miterlimit="10"/>
<path d="M2035.53 563.767C2036.36 489.538 1956.05 448.259 1834.48 340.651C1825.92 333.077 1817.81 325.176 1809.3 317.657C1780.64 292.371 1750.07 268.162 1714.75 253.272C1611.23 209.226 1505.52 237.162 1401.03 262.332C1320.67 281.694 1236.7 309.983 1141.88 340.127C1111.46 349.799 1081.09 359.825 1050.43 369.404C983.972 390.174 910.245 409.508 845.521 396.887C780 384.1 740.682 346.558 699.879 314.25C652.234 276.625 596.787 240.039 527.816 212.522C503.755 202.949 477.896 194.596 450.845 187.988C400.503 175.582 345.84 168.841 291.539 171.27C226.401 174.196 165.272 189.589 108.645 204.313C-6.61827 233.91 -107.657 263.524 -201.25 308.486C-229.188 321.902 -256.405 336.615 -282.927 353.172" stroke="#2EA7E0" stroke-width="0.552088" stroke-miterlimit="10"/>
<path d="M2039.58 557.715C2040.36 487.611 1957.75 452.868 1833.27 345.062C1824.71 337.647 1816.62 329.89 1808.13 322.514C1779.52 297.648 1749.24 273.809 1714.54 258.815C1612.67 214.377 1509.21 238.017 1404.66 261.304C1325.45 278.949 1242.12 305.88 1147.35 335.212C1117.16 344.554 1087.05 354.304 1056.66 363.64C990.794 383.885 918.101 402.899 853.912 391.774C788.939 380.506 748.722 345.89 707.09 316.16C658.47 281.544 602.461 247.828 533.631 222.448C509.614 213.621 483.889 205.913 457.036 199.818C407.083 188.374 352.994 182.096 299.261 184.266C234.817 186.877 174.179 200.945 117.941 214.013C3.41723 240.231 -96.9015 265.064 -190.756 305.422C-218.77 317.463 -246.153 330.812 -272.93 346.067" stroke="#2EA7E0" stroke-width="0.552088" stroke-miterlimit="10"/>
<path d="M2043.63 551.67C2044.37 485.69 1959.49 457.456 1832.08 349.473C1823.51 342.219 1815.43 334.605 1806.98 327.373C1778.41 302.926 1748.42 279.457 1714.33 264.352C1614.12 219.522 1512.93 238.895 1408.29 260.266C1330.24 276.211 1247.54 301.773 1152.81 330.293C1122.86 339.309 1093.01 348.777 1062.89 357.87C997.622 377.585 925.955 396.285 862.308 386.656C797.883 376.901 756.767 345.211 714.306 318.065C664.718 286.458 608.148 255.612 539.458 232.364C515.486 224.281 489.901 217.22 463.238 211.644C413.669 201.16 360.153 195.352 307 197.257C243.251 199.548 183.111 212.296 127.261 223.702C13.4773 246.547 -86.1211 266.593 -180.237 302.341C-208.333 313.002 -235.876 324.988 -262.914 338.945" stroke="#2EA7E0" stroke-width="0.552088" stroke-miterlimit="10"/>
<path d="M2047.68 545.619C2048.37 483.763 1961.26 462.011 1830.86 353.884C1822.3 346.785 1814.22 339.32 1805.8 332.232C1777.27 308.21 1747.54 285.166 1714.1 269.895C1615.44 224.845 1516.64 239.806 1411.92 259.24C1335.03 273.511 1252.96 297.682 1158.28 325.38C1128.57 334.07 1098.96 343.257 1069.12 352.107C1004.44 371.297 933.81 389.676 870.698 381.544C806.816 373.301 764.807 344.543 721.524 319.975C670.96 291.377 613.835 263.403 545.279 242.291C521.352 234.948 495.901 228.538 469.436 223.476C420.255 213.958 367.313 208.608 314.728 210.248C251.667 212.224 192.024 223.647 136.57 233.391C23.5256 252.858 -75.3524 268.123 -169.736 299.266C-197.909 308.552 -225.617 319.175 -252.917 331.834" stroke="#2EA7E0" stroke-width="0.552088" stroke-miterlimit="10"/>
<path d="M2051.74 539.574C2052.38 481.843 1963.05 466.544 1829.67 358.302C1821.1 351.356 1813.03 344.047 1804.65 337.096C1776.16 313.494 1746.73 290.82 1713.9 275.444C1616.9 229.996 1520.38 240.745 1415.56 258.219C1339.85 270.84 1258.39 293.602 1163.76 320.478C1134.29 328.848 1104.93 337.747 1075.37 346.354C1011.28 365.015 941.67 383.079 879.101 376.449C815.767 369.724 772.866 343.892 728.747 321.902C677.207 296.313 619.528 271.21 551.106 252.229C527.223 245.631 501.906 239.868 475.639 235.318C426.847 226.761 374.479 221.881 322.461 223.255C260.095 224.912 200.95 235.02 145.884 243.103C33.5795 259.196 -64.5844 269.675 -159.223 296.208C-187.479 304.12 -215.34 313.378 -242.901 324.735" stroke="#2EA7E0" stroke-width="0.552088" stroke-miterlimit="10"/>
<path d="M2055.79 533.524C2056.39 479.91 1964.88 471.044 1828.45 362.713C1819.9 355.922 1811.83 348.762 1803.48 341.955C1775.03 318.778 1745.89 296.468 1713.67 280.982C1618.32 235.142 1524.1 241.712 1419.18 257.181C1344.65 268.173 1263.8 289.512 1169.22 315.554C1139.99 323.603 1110.88 332.21 1081.59 340.58C1018.09 358.716 949.519 376.466 887.485 371.326C824.699 366.114 780.899 343.213 735.952 323.802C683.443 301.216 625.202 278.983 556.914 262.139C533.076 256.287 507.899 251.169 481.823 247.133C433.414 239.537 381.619 235.12 330.175 236.23C268.505 237.571 209.856 246.355 155.18 252.776C43.6146 265.49 -53.8288 271.182 -148.728 293.117C-177.061 299.654 -205.088 307.548 -232.911 317.602" stroke="#2EA7E0" stroke-width="0.552088" stroke-miterlimit="10"/>
<path d="M2059.84 527.472C2060.4 477.983 1966.75 475.504 1827.26 367.118C1818.71 360.477 1810.64 353.476 1802.32 346.807C1773.92 324.05 1745.07 302.11 1713.47 286.519C1619.77 240.281 1527.86 242.705 1422.82 256.148C1349.48 265.534 1269.24 285.437 1174.7 310.64C1145.71 318.369 1116.85 326.689 1087.83 334.81C1024.93 352.416 957.38 369.851 895.888 366.207C833.651 362.508 788.952 342.534 743.175 325.706C689.691 306.129 630.896 286.767 562.748 272.06C538.955 266.947 513.912 262.481 488.034 258.964C440.013 252.328 388.792 248.375 337.922 249.225C276.947 250.252 218.789 257.711 164.508 262.47C53.6822 271.811 -43.0408 272.717 -138.208 290.041C-166.618 295.203 -194.81 301.734 -222.894 310.485" stroke="#2EA7E0" stroke-width="0.552088" stroke-miterlimit="10"/>
<path d="M2063.89 521.427C2064.39 476.062 1968.64 479.938 1826.05 371.535C1817.51 365.042 1809.44 358.197 1801.16 351.671C1772.79 329.339 1744.23 307.763 1713.25 292.062C1621.21 245.427 1531.6 243.743 1426.45 255.116C1354.3 262.917 1274.66 281.362 1180.16 305.721C1151.42 313.13 1122.81 321.162 1094.06 329.041C1031.75 346.122 965.229 363.237 904.285 361.09C842.596 358.909 796.998 341.86 750.393 327.611C695.933 311.043 636.577 294.552 568.569 281.975C544.821 277.608 519.918 273.788 494.231 270.784C446.599 265.114 395.952 261.625 345.649 262.205C285.369 262.912 227.709 269.051 173.816 272.154C63.7302 278.116 -32.2724 274.24 -127.701 286.955C-156.193 290.742 -184.545 295.91 -212.885 303.358" stroke="#2EA7E0" stroke-width="0.552088" stroke-miterlimit="10"/>
<path d="M2067.94 515.376C2068.4 474.135 1970.56 484.332 1824.84 375.946C1816.31 369.597 1808.24 362.911 1799.99 356.529C1771.66 334.622 1743.44 313.361 1713.03 297.604C1622.75 250.417 1535.35 244.819 1430.07 254.089C1359.11 260.333 1280.09 277.299 1185.62 300.812C1157.13 307.906 1128.77 315.647 1100.29 323.282C1038.57 339.834 973.083 356.634 912.675 355.982C851.534 355.314 805.037 341.197 757.609 329.526C702.181 315.967 642.263 302.347 574.39 291.907C550.685 288.285 525.916 285.111 500.427 282.621C453.178 277.911 403.111 274.886 353.376 275.206C293.784 275.598 236.621 280.412 183.117 281.853C73.7709 284.443 -21.5112 275.78 -117.201 283.89C-145.77 286.303 -174.288 290.101 -202.888 296.257" stroke="#2EA7E0" stroke-width="0.552088" stroke-miterlimit="10"/>
<path d="M2071.99 509.331C2072.41 472.214 1972.52 488.694 1823.64 380.363C1815.12 374.163 1807.05 367.637 1798.83 361.393C1770.54 339.911 1742.61 319.015 1712.82 303.148C1624.2 255.563 1539.1 245.935 1433.71 253.062C1363.95 257.777 1285.53 273.247 1191.1 295.899C1162.84 302.678 1134.73 310.126 1106.52 317.519C1045.4 333.546 980.938 350.026 921.071 350.87C860.479 351.715 813.083 340.53 764.827 331.437C708.422 320.886 647.951 310.137 580.211 301.828C556.545 298.946 531.923 296.418 506.624 294.447C459.764 290.698 410.265 288.136 361.11 288.197C302.212 288.275 245.547 291.764 192.432 291.543C83.8253 290.753 -10.7364 277.31 -106.694 280.81C-135.346 281.848 -164.023 284.283 -192.879 289.136" stroke="#2EA7E0" stroke-width="0.552088" stroke-miterlimit="10"/>
<path d="M2076.04 503.28C2076.41 470.287 1974.49 493.006 1822.44 384.769C1813.92 378.712 1805.85 372.347 1797.67 366.246C1769.42 345.189 1741.79 324.657 1712.6 308.685C1625.64 260.709 1542.84 247.089 1437.34 252.025C1368.76 255.232 1290.97 269.183 1196.56 290.98C1168.55 297.445 1140.69 304.594 1112.75 311.749C1052.22 327.247 988.792 343.412 929.462 345.753C869.417 348.116 821.129 339.851 772.037 333.342C714.658 325.8 653.631 317.922 586.031 311.749C562.41 309.613 537.922 307.73 512.821 306.278C466.344 303.49 417.424 301.398 368.837 301.188C310.634 300.945 254.466 303.115 201.74 301.232C93.8731 297.069 0.0318088 278.839 -96.1876 277.735C-124.916 277.398 -153.758 278.47 -182.875 282.019" stroke="#2EA7E0" stroke-width="0.552088" stroke-miterlimit="10"/>
<path d="M2080.1 497.229C2080.42 468.36 1976.51 497.279 1821.23 389.18C1812.73 383.261 1804.64 377.078 1796.5 371.104C1768.24 350.517 1740.96 330.305 1712.38 314.228C1627.07 265.86 1546.59 248.292 1440.96 250.998C1373.57 252.72 1296.4 265.148 1202.03 286.066C1174.27 292.222 1146.65 299.074 1118.99 305.986C1059.05 320.958 996.647 336.803 937.858 340.64C878.362 344.516 829.174 339.183 779.254 335.252C720.905 330.714 659.318 325.712 591.852 321.671C568.275 320.279 543.921 319.043 519.018 318.104C472.929 316.282 424.584 314.648 376.563 314.179C319.056 313.621 263.379 314.466 211.049 310.927C103.921 303.385 10.7998 280.374 -85.681 274.66C-114.492 272.949 -143.494 272.656 -172.873 274.903" stroke="#2EA7E0" stroke-width="0.552088" stroke-miterlimit="10"/>
<path d="M2084.14 491.183C2084.42 466.439 1978.55 501.513 1820.03 393.596C1811.54 387.821 1803.45 381.804 1795.34 375.963C1767.13 355.8 1740.13 335.958 1712.17 319.765C1628.52 271.005 1550.32 249.54 1444.6 249.959C1378.38 250.224 1301.84 261.101 1207.5 281.147C1179.98 286.993 1152.61 293.547 1125.22 300.21C1065.88 314.653 1004.51 330.189 946.254 335.517C887.306 340.905 837.22 338.503 786.471 337.151C727.147 335.621 665.005 333.49 597.673 331.58C574.141 330.929 549.926 330.343 525.215 329.918C479.515 329.057 431.737 327.892 384.29 327.152C327.478 326.28 272.298 325.8 220.357 320.599C113.968 309.684 21.568 281.887 -75.1806 271.568C-104.068 268.482 -133.236 266.826 -162.87 267.775" stroke="#2EA7E0" stroke-width="0.552088" stroke-miterlimit="10"/>
<path d="M2088.2 485.132C2088.43 464.512 1980.63 505.697 1818.83 398.007C1810.35 392.37 1802.26 386.518 1794.18 380.821C1766.01 361.078 1739.31 341.606 1711.95 325.308C1629.96 276.156 1554.03 250.837 1448.22 248.932C1383.17 247.762 1307.27 257.075 1212.97 276.233C1185.69 281.776 1158.57 288.025 1131.45 294.446C1072.7 308.364 1012.36 323.58 954.645 330.409C896.245 337.31 845.26 337.84 793.688 339.066C733.395 340.546 670.692 341.285 603.494 341.512C580.006 341.606 555.926 341.666 531.412 341.755C486.095 341.854 438.897 341.153 392.024 340.154C335.907 338.961 281.218 337.161 229.672 330.299C124.023 316.005 32.3428 283.421 -64.6671 268.498C-93.6311 264.037 -122.965 261.017 -152.86 260.664" stroke="#2EA7E0" stroke-width="0.552088" stroke-miterlimit="10"/>
<path d="M2092.25 479.087C2092.43 462.591 1982.73 509.839 1817.62 402.424C1809.16 396.925 1801.05 391.239 1793.01 385.685C1764.88 366.367 1738.48 347.26 1711.74 330.851C1631.4 281.302 1557.72 252.184 1451.86 247.906C1387.95 245.322 1312.71 253.057 1218.45 271.325C1191.41 276.565 1164.53 282.511 1137.69 288.688C1079.53 302.077 1020.22 316.977 963.042 325.303C905.19 333.722 853.306 337.173 800.906 340.982C739.637 345.471 676.373 349.081 609.315 351.439C585.872 352.278 561.932 352.985 537.603 353.586C492.675 354.646 446.051 354.409 399.745 353.145C344.317 351.638 290.131 348.513 238.974 339.994C134.065 322.327 43.1053 284.956 -54.1661 265.423C-83.2129 259.588 -112.706 255.204 -142.862 253.548" stroke="#2EA7E0" stroke-width="0.552088" stroke-miterlimit="10"/>
<path d="M2096.3 473.036C2096.44 460.664 1984.86 513.924 1816.42 406.83C1807.98 401.464 1799.87 395.954 1791.85 390.538C1763.76 371.64 1737.65 352.902 1711.53 336.389C1632.84 286.447 1561.39 253.576 1455.49 246.868C1392.72 242.893 1318.16 249.038 1223.91 266.401C1197.12 271.336 1170.5 276.973 1143.92 282.914C1086.36 295.777 1028.07 310.358 971.444 320.18C914.141 330.112 861.358 336.494 808.129 342.882C745.884 350.379 682.065 356.861 615.148 361.355C591.75 362.933 567.943 364.292 543.812 365.412C499.273 367.438 453.216 367.665 407.484 366.136C352.751 364.308 299.062 359.864 248.288 349.683C144.118 328.643 53.8789 286.486 -43.6602 262.348C-72.7836 255.138 -102.443 249.385 -132.854 246.432" stroke="#2EA7E0" stroke-width="0.552088" stroke-miterlimit="10"/>
<path d="M2100.35 466.985C2100.44 458.737 1987.01 517.959 1815.21 411.241C1806.79 406.007 1798.67 400.668 1790.69 395.396C1762.65 376.923 1736.83 358.555 1711.31 341.926C1634.28 291.592 1565.03 255.016 1459.12 245.835C1397.46 240.491 1323.59 245.035 1229.38 261.487C1202.84 266.124 1176.46 271.452 1150.16 277.15C1093.18 289.483 1035.93 303.749 979.841 315.067C923.086 326.512 869.404 335.826 815.346 344.791C752.133 355.298 687.752 364.65 620.969 371.275C597.615 373.599 573.949 375.604 550.009 377.238C505.852 380.225 460.376 380.915 415.218 379.126C361.179 376.984 307.982 371.214 257.602 359.372C154.172 334.953 64.6537 288.015 -33.1468 259.267C-62.3531 250.682 -92.1714 243.566 -122.844 239.315" stroke="#2EA7E0" stroke-width="0.552088" stroke-miterlimit="10"/>
<path d="M2104.4 460.94C2104.44 456.816 1989.2 521.945 1814 415.657C1805.59 410.556 1797.47 405.394 1789.52 400.26C1761.52 382.206 1735.98 364.208 1711.09 347.474C1635.72 296.749 1568.63 256.518 1462.74 244.808C1402.17 238.111 1329.04 241.142 1234.84 256.573C1208.55 260.94 1182.41 265.931 1156.38 271.386C1100 283.195 1043.77 297.14 988.225 309.954C932.018 322.917 877.444 335.157 822.551 346.701C758.362 360.217 693.427 372.44 626.778 381.202C603.469 384.271 579.937 386.921 556.194 389.069C512.426 393.016 467.524 394.17 422.933 392.116C369.589 389.66 316.889 382.571 266.899 369.067C164.208 341.274 75.4099 289.549 -22.652 256.198C-51.9348 246.238 -81.9189 237.758 -112.847 232.204" stroke="#2EA7E0" stroke-width="0.552088" stroke-miterlimit="10"/>
<path d="M2108.46 454.889C2108.46 454.889 1991.42 525.876 1812.8 420.069C1634.19 314.261 1572.7 200.1 1240.32 251.66C1010.64 287.291 793.957 374.687 562.404 400.895C467.135 411.677 367.288 406.598 276.22 378.756C174.269 347.585 86.191 291.079 -12.1386 253.117C-41.5043 241.783 -71.6414 231.939 -102.837 225.082" stroke="#2EA7E0" stroke-width="0.552088" stroke-miterlimit="10"/>
<path d="M-36.2439 920.401C-37.5965 780.419 11.8984 640.487 100.967 532.493C126.308 501.769 156.027 472.718 193.502 459.242C301.789 420.308 417.418 505.418 508.463 553.743C618.335 612.054 726.963 673.165 841.362 722.372C905.586 749.999 981.018 773.446 1043.14 741.381C1106.05 708.907 1129.99 633.293 1156 567.445C1186.31 490.716 1228.04 416.802 1289.3 361.549C1350.56 306.296 1433.37 271.416 1515.38 280.409C1579.6 287.454 1638.11 320.038 1691.55 356.349C1831.95 451.761 1951.23 578.073 2038.46 723.709" stroke="#2EA7E0" stroke-width="0.552088" stroke-miterlimit="10"/>
<path d="M-39.7549 914.349C-40.953 790.632 2.56827 669.548 79.7337 565.7C86.8998 556.055 94.2756 546.57 101.972 537.345C127.274 507.04 156.739 478.359 193.685 464.778C300.536 425.453 414.399 506.113 505.316 552.704C585.921 594.011 665.958 637.626 748.837 677.106C777.59 690.858 806.591 704.103 835.962 716.597C899.673 743.693 974.211 766.826 1035.87 736.257C1098.31 705.301 1123.03 632.613 1149.75 569.344C1180.9 495.623 1223.11 424.58 1284.26 371.459C1305.55 352.964 1329.37 336.843 1354.82 324.051C1402.43 300.101 1455.73 287.789 1508.69 293.388C1572.3 300.112 1630.4 331.377 1683.49 366.031C1790.98 436.141 1885.97 523.167 1964.28 623.415C1987.65 653.327 2009.53 684.41 2029.79 716.58" stroke="#2EA7E0" stroke-width="0.552088" stroke-miterlimit="10"/>
<path d="M-43.2609 908.304C-44.4203 788.711 1.41955 674.334 80.7768 570.117C87.9815 560.659 95.3134 551.296 102.982 542.209C128.251 512.33 157.457 484.013 193.878 470.321C299.299 430.598 411.378 506.814 502.175 551.677C581.935 591.085 661.27 633.546 744.106 672.192C772.649 685.619 801.434 698.582 830.568 710.833C893.766 737.405 967.414 760.217 1028.61 731.144C1090.57 701.702 1116.06 631.94 1143.5 571.254C1175.49 500.542 1218.2 432.371 1279.22 381.385C1300.47 363.636 1324.17 348.161 1349.45 335.888C1396.72 312.899 1449.53 301.051 1501.99 306.384C1565.01 312.794 1622.67 342.734 1675.42 375.726C1782.27 442.457 1876.64 524.702 1955.17 620.34C1978.61 648.878 2000.63 678.597 2021.12 709.464" stroke="#2EA7E0" stroke-width="0.552088" stroke-miterlimit="10"/>
<path d="M-46.7722 902.253C-47.8874 786.784 0.238004 679.116 81.8146 574.528C89.0525 565.248 96.3403 556.011 103.981 547.067C129.212 517.608 158.169 489.667 194.054 475.865C298.04 435.75 408.325 507.521 499.022 550.645C577.921 588.159 656.655 629.268 739.358 667.279C767.724 680.32 796.261 693.062 825.163 705.07C887.847 731.112 960.607 753.609 1021.33 726.032C1082.81 698.102 1109.09 631.272 1137.24 573.165C1170.07 505.462 1213.26 440.161 1274.16 391.307C1295.38 374.302 1318.96 359.473 1344.07 347.714C1391.01 325.685 1443.31 314.301 1495.28 319.375C1557.7 325.47 1614.93 354.085 1667.35 385.416C1773.56 448.774 1867.3 526.232 1946.06 617.265C1969.56 644.428 1991.72 672.783 2012.44 702.353" stroke="#2EA7E0" stroke-width="0.552088" stroke-miterlimit="10"/>
<path d="M-50.2777 896.207C-51.3543 784.862 -0.96509 683.891 82.864 578.944C90.135 569.846 97.3839 560.731 104.997 551.931C130.194 522.896 158.892 495.319 194.248 481.407C296.798 440.9 405.278 508.238 495.887 549.617C573.913 585.249 652.001 625.126 734.632 662.365C762.799 675.063 791.105 687.54 819.775 699.305C881.946 724.823 953.811 747.006 1014.07 720.919C1075.08 694.507 1102.13 630.603 1131 575.074C1164.68 510.38 1208.35 447.945 1269.13 401.227C1290.31 384.962 1313.77 370.785 1338.71 359.539C1385.32 338.477 1437.13 327.556 1488.6 332.359C1550.42 338.134 1607.22 365.43 1659.3 395.099C1764.87 455.078 1857.98 527.755 1936.98 614.179C1960.55 639.967 1982.85 666.958 2003.79 695.225" stroke="#2EA7E0" stroke-width="0.552088" stroke-miterlimit="10"/>
<path d="M-53.7836 890.158C-54.8216 782.937 -2.19102 688.656 83.9072 583.357C91.2058 574.435 98.4216 565.452 106.002 556.79C131.16 528.175 159.61 500.968 194.435 486.951C295.55 446.052 402.208 508.963 492.745 548.592C569.889 582.357 647.33 620.993 729.895 657.458C757.864 669.814 785.943 682.026 814.375 693.548C876.033 718.535 947.009 740.404 1006.79 715.814C1067.33 690.915 1095.16 629.942 1124.75 576.991C1159.27 515.301 1203.42 455.741 1264.09 411.16C1285.23 395.641 1308.58 382.109 1333.34 371.377C1379.61 351.275 1430.93 340.819 1481.91 345.362C1543.12 350.822 1599.49 376.798 1651.23 404.806C1756.17 461.411 1848.65 529.302 1927.87 611.121C1951.51 635.535 1973.95 661.162 1995.13 688.126" stroke="#2EA7E0" stroke-width="0.552088" stroke-miterlimit="10"/>
<path d="M-57.2953 884.106C-58.2946 781.009 -3.45552 693.404 84.9449 587.762C92.2656 579.016 99.4482 570.161 107.006 561.642C132.126 533.453 160.321 506.61 194.617 492.482C294.302 451.191 399.116 509.68 489.598 547.547C565.841 579.458 642.659 616.84 725.158 652.527C752.928 664.54 780.781 676.488 808.976 687.761C870.12 712.224 940.202 733.772 999.523 710.679C1059.59 687.292 1088.19 629.251 1118.5 578.878C1153.87 520.197 1198.5 463.509 1259.05 421.058C1280.15 406.285 1303.38 393.399 1327.98 383.185C1373.92 364.044 1424.73 354.051 1475.21 358.33C1535.83 363.476 1591.77 388.126 1643.17 414.472C1747.47 467.699 1839.33 530.808 1918.77 608.018C1942.49 631.056 1965.07 655.321 1986.46 680.982" stroke="#2EA7E0" stroke-width="0.552088" stroke-miterlimit="10"/>
<path d="M-60.8007 878.061C-61.7558 779.088 -4.73607 698.152 85.9942 592.179C93.3369 583.605 100.492 574.882 108.017 566.506C133.104 538.736 161.045 512.264 194.811 498.031C293.061 456.343 396.025 510.431 486.457 546.526C561.789 576.593 637.983 612.716 720.427 647.625C747.998 659.302 775.624 670.973 803.582 682.009C864.213 705.942 933.406 727.175 992.258 705.578C1051.85 683.709 1081.23 628.589 1112.25 580.8C1148.46 525.127 1193.57 471.31 1254 430.996C1275.07 416.962 1298.18 404.728 1322.61 395.028C1368.21 376.848 1418.53 367.324 1468.52 371.338C1528.53 376.163 1584.04 399.494 1635.11 424.178C1738.76 474.032 1830 532.354 1909.68 604.959C1933.46 626.623 1956.18 649.524 1977.8 673.882" stroke="#2EA7E0" stroke-width="0.552088" stroke-miterlimit="10"/>
<path d="M-64.3119 872.01C-65.2284 777.161 -6.05563 702.877 87.032 596.589C94.3914 588.186 101.519 579.601 109.022 571.364C134.07 544.019 161.757 517.917 194.993 503.573C291.807 461.493 392.9 511.181 483.31 545.493C557.715 573.733 633.307 608.581 715.684 642.705C743.051 654.04 770.457 665.446 798.183 676.239C858.3 699.648 926.598 720.561 984.987 700.465C1044.1 680.109 1074.26 627.92 1106.01 582.71C1143.05 530.046 1188.65 479.099 1248.96 440.917C1269.99 427.628 1292.98 416.04 1317.24 406.853C1362.51 389.639 1412.33 380.574 1461.83 384.328C1521.24 388.838 1576.32 410.845 1627.05 433.872C1730.06 480.347 1820.68 533.889 1900.58 601.884C1924.43 622.173 1947.29 643.704 1969.14 666.771" stroke="#2EA7E0" stroke-width="0.552088" stroke-miterlimit="10"/>
<path d="M-67.8177 865.959C-68.6955 775.234 -7.39157 707.587 88.0756 601C95.4515 592.769 102.557 584.316 110.026 576.223C135.042 549.297 162.475 523.564 195.175 509.111C290.559 466.639 389.77 511.943 480.163 544.461C553.63 570.889 628.625 604.456 710.947 637.791C738.116 648.795 765.295 659.925 792.783 670.475C852.387 693.354 919.797 713.952 977.716 695.352C1036.35 676.509 1067.29 627.252 1099.76 584.62C1137.65 534.965 1183.73 486.889 1243.92 450.843C1264.91 438.3 1287.78 427.357 1311.87 418.684C1356.81 402.431 1406.13 393.835 1455.13 397.318C1513.94 401.509 1568.59 422.195 1618.98 443.561C1721.36 486.663 1811.35 535.418 1891.48 598.809C1915.39 617.723 1938.4 637.891 1960.47 659.654" stroke="#2EA7E0" stroke-width="0.552088" stroke-miterlimit="10"/>
<path d="M-71.329 859.914C-72.1682 773.314 -8.76079 712.291 89.119 605.412C96.5059 597.346 103.589 589.032 111.037 581.076C136.013 554.576 163.193 529.208 195.368 514.649C289.317 471.785 386.628 512.717 477.027 543.424C549.544 568.058 623.949 600.328 706.221 632.868C733.185 643.534 760.144 654.394 787.395 664.701C846.485 687.055 913.001 707.333 970.456 690.23C1028.62 672.9 1060.34 626.574 1093.52 586.52C1132.25 539.874 1178.81 494.669 1238.89 460.754C1259.84 448.95 1282.6 438.654 1306.52 430.5C1351.12 415.207 1399.94 407.075 1448.45 410.299C1506.66 414.174 1560.88 433.536 1610.93 453.24C1712.67 492.963 1802.03 536.931 1882.4 595.718C1906.38 613.258 1929.53 632.062 1951.82 652.522" stroke="#2EA7E0" stroke-width="0.552088" stroke-miterlimit="10"/>
<path d="M-74.8352 853.863C-75.6357 771.386 -10.1526 716.967 90.1619 609.823C97.5599 601.923 104.627 593.752 112.041 585.934C136.984 559.854 163.91 534.855 195.55 520.186C288.064 476.93 383.465 513.511 473.88 542.391C545.431 565.247 619.262 596.203 701.479 627.954C728.238 638.289 754.976 648.872 781.99 658.937C840.566 680.761 906.193 700.73 963.174 685.117C1020.86 669.305 1053.35 625.9 1087.26 588.435C1126.83 544.793 1173.88 502.464 1233.84 470.68C1254.74 459.622 1277.38 449.971 1301.14 442.336C1345.4 428.004 1393.73 420.335 1441.74 423.294C1499.35 426.855 1553.15 444.892 1602.86 462.94C1703.95 499.289 1792.69 538.471 1873.28 592.648C1897.34 608.813 1920.62 626.253 1943.14 645.411" stroke="#2EA7E0" stroke-width="0.552088" stroke-miterlimit="10"/>
<path d="M-78.3411 847.818C-79.0974 769.465 -11.5714 721.627 91.2054 614.24C98.6089 606.506 105.648 598.456 113.051 590.799C137.906 565.093 164.628 540.514 195.738 525.735C286.816 482.081 380.295 514.329 470.733 541.37C541.312 562.471 614.574 592.102 696.742 623.046C723.297 633.05 749.808 643.352 776.596 653.174C834.659 674.473 899.391 694.122 955.908 680.005C1013.12 665.706 1046.39 625.232 1081.01 590.346C1121.42 549.712 1168.95 510.255 1228.79 480.607C1249.66 470.294 1272.18 461.29 1295.77 454.168C1339.7 440.802 1387.53 433.597 1435.04 436.291C1492.05 439.532 1545.42 456.249 1594.79 472.635C1695.24 505.606 1783.36 540.007 1864.18 589.579C1888.3 604.369 1911.73 620.446 1934.47 638.306" stroke="#2EA7E0" stroke-width="0.552088" stroke-miterlimit="10"/>
<path d="M-81.8515 841.767C-82.5692 767.538 -13.0225 726.259 92.2497 618.651C99.6587 611.077 106.681 603.176 114.057 595.657C138.874 570.371 165.346 546.162 195.926 531.272C285.575 487.226 377.111 515.162 467.593 540.332C537.183 559.694 609.893 587.983 692.005 618.127C718.351 627.799 744.647 637.825 771.197 647.404C828.747 668.174 892.59 687.508 948.638 674.887C1005.38 662.1 1039.42 624.558 1074.76 592.25C1116.01 554.625 1164.03 518.039 1223.75 490.522C1244.59 480.949 1266.98 472.596 1290.41 465.988C1334 453.582 1381.34 446.841 1428.36 449.27C1484.77 452.196 1537.7 467.589 1586.74 482.313C1686.55 511.91 1774.04 541.524 1855.09 586.486C1879.28 599.902 1902.85 614.615 1925.82 631.172" stroke="#2EA7E0" stroke-width="0.552088" stroke-miterlimit="10"/>
<path d="M-85.3576 835.715C-86.0367 765.611 -14.4971 730.868 93.2926 623.062C100.707 615.647 107.719 607.89 115.067 600.514C139.845 575.648 166.064 551.809 196.114 536.815C284.326 492.377 373.914 516.017 464.451 539.304C533.048 556.949 605.2 583.88 687.274 613.212C713.415 622.554 739.49 632.304 765.803 641.64C822.839 661.885 885.788 680.899 941.372 669.774C997.636 658.506 1032.46 623.89 1068.51 594.16C1110.62 559.544 1159.12 525.828 1218.72 500.448C1239.52 491.621 1261.79 483.913 1285.05 477.818C1328.3 466.374 1375.14 460.096 1421.67 462.266C1477.48 464.877 1529.99 478.945 1578.69 492.013C1677.86 518.231 1764.73 543.064 1846 583.422C1870.26 595.463 1893.97 608.812 1917.16 624.067" stroke="#2EA7E0" stroke-width="0.552088" stroke-miterlimit="10"/>
<path d="M-88.8684 829.67C-89.5089 763.69 -16.0038 735.456 94.3311 627.473C101.746 620.219 108.746 612.605 116.067 605.373C140.806 580.926 166.776 557.457 196.296 542.352C283.074 497.522 370.695 516.895 461.304 538.266C528.896 554.211 600.508 579.773 682.537 608.293C708.474 617.309 734.328 626.777 760.404 635.87C816.926 655.585 878.987 674.285 934.102 664.656C989.89 654.901 1025.49 623.211 1062.26 596.065C1105.2 564.458 1154.19 533.612 1213.67 510.364C1234.43 502.281 1256.59 495.22 1279.68 489.644C1322.6 479.16 1368.94 473.352 1414.97 475.257C1470.17 477.548 1522.25 490.296 1570.62 501.702C1669.15 524.547 1755.39 544.593 1836.89 580.341C1861.22 591.002 1885.07 602.988 1908.49 616.945" stroke="#2EA7E0" stroke-width="0.552088" stroke-miterlimit="10"/>
<path d="M-92.3744 823.619C-92.9707 761.763 -17.5333 740.011 95.3798 631.884C102.794 624.785 109.789 617.32 117.082 610.232C141.788 586.21 167.532 563.166 196.489 547.895C281.925 502.845 367.482 517.806 458.168 537.24C524.75 551.511 595.82 575.682 677.806 603.38C703.533 612.07 729.172 621.257 755.01 630.107C811.019 649.297 872.185 667.676 926.836 659.544C982.155 651.301 1018.53 622.543 1056.01 597.975C1099.8 569.377 1149.27 541.403 1208.63 520.291C1229.35 512.948 1251.39 506.538 1274.31 501.476C1316.9 491.958 1362.74 486.608 1408.28 488.248C1462.89 490.224 1514.53 501.647 1562.55 511.391C1660.45 530.858 1746.07 546.123 1827.8 577.266C1852.2 586.552 1876.19 597.175 1899.83 609.834" stroke="#2EA7E0" stroke-width="0.552088" stroke-miterlimit="10"/>
<path d="M-95.8855 817.574C-96.4431 759.843 -19.0901 744.544 96.4178 636.302C103.832 629.356 110.822 622.047 118.082 615.096C142.749 591.494 168.239 568.82 196.666 553.444C280.666 507.996 364.247 518.745 455.01 536.219C520.571 548.84 591.111 571.602 673.058 598.478C698.575 606.848 723.999 615.747 749.605 624.354C805.101 643.015 865.378 661.079 919.56 654.449C974.404 647.724 1011.55 621.892 1049.76 599.902C1094.39 574.313 1144.34 549.21 1203.59 530.229C1224.27 523.631 1246.19 517.868 1268.94 513.318C1311.19 504.761 1356.54 499.881 1401.58 501.255C1455.59 502.912 1506.81 513.02 1554.49 521.103C1651.74 537.196 1736.74 547.675 1818.7 574.208C1843.17 582.12 1867.29 591.378 1891.16 602.735" stroke="#2EA7E0" stroke-width="0.552088" stroke-miterlimit="10"/>
<path d="M-99.3916 811.524C-99.9106 757.91 -20.6749 749.044 97.4665 640.713C104.876 633.922 111.86 626.762 119.097 619.955C143.732 596.778 168.967 574.468 196.865 558.982C279.435 513.142 361.023 519.712 451.88 535.181C516.413 546.173 586.429 567.512 668.332 593.554C693.639 601.603 718.848 610.21 744.216 618.58C799.199 636.716 858.581 654.466 912.299 649.326C966.669 644.114 1004.6 621.213 1043.52 601.802C1088.99 579.216 1139.42 556.983 1198.56 540.139C1219.2 534.287 1241 529.169 1263.58 525.133C1305.5 517.537 1350.35 513.12 1394.9 514.23C1448.31 515.571 1499.09 524.355 1546.44 530.776C1643.05 543.49 1727.43 549.182 1809.61 571.117C1834.14 577.654 1858.41 585.548 1882.51 595.602" stroke="#2EA7E0" stroke-width="0.552088" stroke-miterlimit="10"/>
<path d="M-102.903 805.472C-103.383 755.983 -22.2869 753.504 98.5045 645.118C105.908 638.477 112.892 631.476 120.097 624.807C144.692 602.05 169.674 580.11 197.041 564.519C278.176 518.281 357.771 520.705 448.727 534.148C512.234 543.534 581.72 563.437 663.589 588.64C688.687 596.369 713.68 604.689 738.811 612.81C793.28 630.416 851.774 647.851 905.023 644.207C958.918 640.508 997.625 620.534 1037.26 603.706C1083.58 584.129 1134.49 564.767 1193.51 550.06C1214.11 544.947 1235.8 540.481 1258.2 536.964C1299.79 530.328 1344.14 526.375 1388.19 527.225C1441 528.252 1491.36 535.711 1538.36 540.47C1634.33 549.811 1718.09 550.717 1800.5 568.041C1825.1 573.203 1849.51 579.734 1873.83 588.485" stroke="#2EA7E0" stroke-width="0.552088" stroke-miterlimit="10"/>
<path d="M-106.409 799.427C-106.845 754.062 -23.9271 757.938 99.5475 649.535C106.946 643.042 113.93 636.197 121.107 629.671C145.669 607.339 170.397 585.763 197.229 570.062C276.934 523.427 354.524 521.743 445.586 533.116C508.06 540.917 577.021 559.362 658.857 583.721C683.745 591.13 708.518 599.162 733.417 607.041C787.373 624.122 844.977 641.237 897.751 639.09C951.172 636.909 990.657 619.86 1031.01 605.611C1078.17 589.043 1129.57 572.552 1188.46 559.975C1209.03 555.608 1230.59 551.788 1252.84 548.784C1294.08 543.114 1337.94 539.625 1381.5 540.205C1433.7 540.912 1483.63 547.051 1530.3 550.154C1625.63 556.116 1708.76 552.24 1791.4 564.955C1816.07 568.742 1840.62 573.91 1865.17 581.358" stroke="#2EA7E0" stroke-width="0.552088" stroke-miterlimit="10"/>
<path d="M-109.915 793.376C-110.312 752.135 -25.5887 762.332 100.597 653.946C107.984 647.597 114.968 640.911 122.117 634.529C146.646 612.622 171.082 591.361 197.422 575.604C275.598 528.417 351.284 522.819 442.45 532.089C503.892 538.333 572.323 555.299 654.126 578.812C678.805 585.906 703.361 593.647 728.023 601.282C781.465 617.834 838.176 634.634 890.486 633.982C943.432 633.314 983.695 619.197 1024.77 607.526C1072.76 593.967 1124.65 580.347 1183.42 569.907C1203.95 566.285 1225.4 563.111 1247.47 560.621C1288.39 555.911 1331.74 552.886 1374.81 553.206C1426.42 553.598 1475.92 558.412 1522.25 559.853C1616.94 562.443 1699.45 553.78 1782.31 561.89C1807.05 564.303 1831.74 568.101 1856.51 574.257" stroke="#2EA7E0" stroke-width="0.552088" stroke-miterlimit="10"/>
<path d="M-113.426 787.331C-113.785 750.214 -27.2833 766.694 101.635 658.363C109.016 652.163 116 645.637 123.122 639.393C147.618 617.911 171.8 597.015 197.604 581.148C274.345 533.563 348.032 523.935 439.298 531.062C499.707 535.777 567.608 551.247 649.384 573.899C673.852 580.678 698.194 588.126 722.624 595.519C775.553 611.546 831.374 628.026 883.215 628.87C935.686 629.715 976.728 618.53 1018.52 609.437C1067.36 598.886 1119.72 588.137 1178.38 579.828C1198.88 576.946 1220.2 574.418 1242.11 572.447C1282.68 568.698 1325.55 566.136 1368.11 566.197C1419.12 566.275 1468.19 569.764 1514.18 569.543C1608.23 568.753 1690.11 555.31 1773.21 558.81C1798.02 559.848 1822.85 562.283 1847.84 567.136" stroke="#2EA7E0" stroke-width="0.552088" stroke-miterlimit="10"/>
<path d="M-116.931 781.28C-117.252 748.287 -28.995 771.006 102.678 662.769C110.049 656.712 117.038 650.347 124.127 644.246C148.59 623.189 172.512 602.657 197.792 586.685C273.097 538.709 344.791 525.089 436.156 530.025C495.539 533.232 562.905 547.183 644.652 568.98C668.911 575.445 693.037 582.594 717.23 589.749C769.645 605.247 824.573 621.412 875.95 623.753C927.946 626.116 969.761 617.851 1012.27 611.342C1061.96 603.8 1114.81 595.922 1173.34 589.749C1193.8 587.613 1215 585.73 1236.74 584.278C1276.99 581.49 1319.35 579.398 1361.42 579.188C1411.82 578.945 1460.46 581.115 1506.12 579.232C1599.53 575.069 1680.79 556.839 1764.11 555.735C1788.99 555.398 1813.96 556.47 1839.18 560.019" stroke="#2EA7E0" stroke-width="0.552088" stroke-miterlimit="10"/>
<path d="M-120.443 775.229C-120.724 746.36 -30.745 775.279 103.722 667.18C111.081 661.261 118.087 655.078 125.137 649.104C149.606 628.517 173.235 608.305 197.98 592.228C271.855 543.86 341.55 526.292 433.015 528.998C491.371 530.72 558.201 543.148 639.915 564.066C663.959 570.222 687.875 577.074 711.831 583.986C763.732 598.958 817.771 614.803 868.679 618.64C920.2 622.516 962.793 617.183 1006.02 613.252C1056.55 608.714 1109.88 603.712 1168.3 599.671C1188.72 598.279 1209.81 597.043 1231.37 596.104C1271.28 594.282 1313.15 592.648 1354.73 592.179C1404.53 591.621 1452.74 592.466 1498.06 588.927C1590.83 581.385 1671.47 558.374 1755.01 552.66C1779.96 550.949 1805.08 550.656 1830.52 552.903" stroke="#2EA7E0" stroke-width="0.552088" stroke-miterlimit="10"/>
<path d="M-123.948 769.183C-124.186 744.439 -32.5114 779.513 104.765 671.596C112.114 665.821 119.12 659.804 126.142 653.963C150.572 633.8 173.948 613.958 198.162 597.765C270.602 549.005 338.321 527.54 429.868 527.959C487.208 528.224 553.492 539.101 635.179 559.147C659.013 564.993 682.714 571.547 706.431 578.21C757.82 592.653 810.964 608.189 861.408 613.517C912.454 618.905 955.826 616.503 999.773 615.151C1051.14 613.621 1104.96 611.49 1163.26 609.58C1183.64 608.929 1204.61 608.343 1226.01 607.918C1265.58 607.057 1306.95 605.892 1348.04 605.152C1397.24 604.28 1445.02 603.8 1490 598.599C1582.13 587.684 1662.14 559.887 1745.92 549.568C1770.94 546.482 1796.19 544.826 1821.85 545.775" stroke="#2EA7E0" stroke-width="0.552088" stroke-miterlimit="10"/>
<path d="M-127.46 763.132C-127.659 742.512 -34.306 783.697 105.803 676.007C113.14 670.37 120.152 664.518 127.147 658.821C151.544 639.078 174.665 619.606 198.35 603.308C269.354 554.156 335.107 528.837 426.727 526.932C483.062 525.762 548.788 535.075 630.442 554.233C654.066 559.776 677.551 566.025 701.037 572.446C751.912 586.364 804.167 601.58 854.142 608.409C904.714 615.31 948.864 615.84 993.523 617.066C1045.73 618.546 1100.03 619.285 1158.22 619.512C1178.56 619.606 1199.41 619.666 1220.64 619.755C1259.88 619.854 1300.75 619.153 1341.34 618.154C1389.94 616.961 1437.3 615.161 1481.93 608.299C1573.42 594.005 1652.81 561.421 1736.82 546.498C1761.9 542.037 1787.3 539.017 1813.19 538.664" stroke="#2EA7E0" stroke-width="0.552088" stroke-miterlimit="10"/>
<path d="M-130.966 757.087C-131.126 740.591 -36.1284 787.839 106.852 680.424C114.172 674.925 121.195 669.239 128.157 663.685C152.515 644.367 175.382 625.26 198.537 608.851C268.106 559.302 331.911 530.184 423.579 525.906C478.921 523.322 544.073 531.057 625.704 549.325C649.113 554.565 672.389 560.511 695.638 566.688C745.999 580.077 797.36 594.977 846.871 603.303C896.968 611.722 941.897 615.173 987.273 618.982C1040.33 623.471 1095.11 627.081 1153.18 629.439C1173.48 630.278 1194.21 630.985 1215.28 631.586C1254.19 632.646 1294.56 632.409 1334.66 631.145C1382.66 629.638 1429.58 626.513 1473.88 617.994C1564.72 600.327 1643.49 562.956 1727.72 543.423C1752.88 537.588 1778.42 533.204 1804.53 531.548" stroke="#2EA7E0" stroke-width="0.552088" stroke-miterlimit="10"/>
<path d="M-134.476 751.036C-134.598 738.664 -37.9711 791.924 107.891 684.83C115.2 679.464 122.223 673.954 129.163 668.538C153.488 649.64 176.101 630.902 198.72 614.389C266.859 564.447 328.732 531.576 420.433 524.868C474.792 520.893 539.359 527.038 620.969 544.401C644.167 549.336 667.222 554.973 690.239 560.914C740.087 573.777 790.559 588.358 839.595 598.18C889.217 608.112 934.925 614.494 981.018 620.882C1034.92 628.379 1090.18 634.861 1148.13 639.355C1168.39 640.933 1189.01 642.292 1209.9 643.412C1248.47 645.438 1288.35 645.665 1327.96 644.136C1375.35 642.308 1421.84 637.864 1465.81 627.683C1556.02 606.643 1634.16 564.486 1718.63 540.348C1743.84 533.138 1769.53 527.385 1795.86 524.432" stroke="#2EA7E0" stroke-width="0.552088" stroke-miterlimit="10"/>
<path d="M-137.982 744.985C-138.06 736.737 -39.8377 795.959 108.934 689.241C116.227 684.007 123.26 678.668 130.167 673.396C154.453 654.923 176.813 636.555 198.908 619.926C265.611 569.592 325.579 533.016 417.292 523.835C470.684 518.491 534.655 523.035 616.231 539.487C639.215 544.124 662.06 549.452 684.839 555.15C734.174 567.483 783.751 581.749 832.324 593.067C881.471 604.512 927.957 613.826 974.768 622.791C1029.51 633.298 1085.26 642.65 1143.09 649.275C1163.31 651.599 1183.81 653.604 1204.54 655.238C1242.77 658.225 1282.15 658.915 1321.26 657.126C1368.05 654.984 1414.12 649.214 1457.75 637.372C1547.31 612.953 1624.83 566.015 1709.52 537.267C1734.81 528.682 1760.63 521.566 1787.19 517.315" stroke="#2EA7E0" stroke-width="0.552088" stroke-miterlimit="10"/>
<path d="M-141.488 738.94C-141.527 734.816 -41.7315 799.945 109.982 693.657C117.264 688.556 124.298 683.394 131.183 678.26C155.431 660.206 177.542 642.208 199.101 625.474C264.369 574.749 322.465 534.518 414.156 522.808C466.604 516.111 529.934 519.142 611.505 534.573C634.273 538.94 656.909 543.931 679.451 549.386C728.272 561.195 776.961 575.14 825.064 587.954C873.736 600.917 920.995 613.157 968.53 624.701C1024.11 638.217 1080.34 650.44 1138.06 659.202C1158.24 662.271 1178.62 664.921 1199.18 667.069C1237.08 671.016 1275.97 672.17 1314.58 670.116C1360.77 667.66 1406.41 660.571 1449.7 647.067C1538.62 619.274 1615.52 567.549 1700.43 534.198C1725.79 524.238 1751.76 515.758 1778.54 510.204" stroke="#2EA7E0" stroke-width="0.552088" stroke-miterlimit="10"/>
<path d="M-145 732.889C-145 732.889 -43.6531 803.876 111.02 698.069C265.693 592.261 318.937 478.1 606.762 529.66C805.658 565.291 993.29 652.687 1193.8 678.895C1276.3 689.677 1362.76 684.598 1441.62 656.756C1529.91 625.585 1606.18 569.079 1691.33 531.117C1716.76 519.783 1742.86 509.939 1769.87 503.082" stroke="#2EA7E0" stroke-width="0.552088" stroke-miterlimit="10"/>
</svg>
